<?xml version="1.0" standalone="no"?>
<!DOCTYPE svg PUBLIC "-//W3C//DTD SVG 1.1//EN" "http://www.w3.org/Graphics/SVG/1.1/DTD/svg11.dtd" >
<svg xmlns="http://www.w3.org/2000/svg" xmlns:xlink="http://www.w3.org/1999/xlink" version="1.1">
<metadata>
Created by FontForge 20190801 at Sat Jun 12 16:01:14 2021
 By root
Copyright (c) 2021 by LyonsType. All rights reserved.
</metadata>
<defs>
<font id="LTMuseum-Bold" horiz-adv-x="470" >
  <font-face 
    font-family="LT Museum"
    font-weight="700"
    font-stretch="normal"
    units-per-em="870"
    panose-1="2 0 0 0 0 0 0 0 0 0"
    ascent="696"
    descent="-174"
    x-height="408"
    cap-height="585"
    bbox="-169 -246 955 781"
    underline-thickness="50"
    underline-position="-100"
    unicode-range="U+001D-FB02"
  />
<missing-glyph horiz-adv-x="512" 
 />
    <glyph glyph-name="uniFB01" unicode="fi" horiz-adv-x="456" 
d="M407 75q0 -33 7.5 -52t11.5 -23h-153q13 14 17 32.5t4 42.5v262h-119v-262q0 -17 4.5 -30t10 -22.5t11 -15l7.5 -7.5h-170q13 12 18 31.5t6 43.5v262h-63v71h63v34q0 31 11.5 60.5t36 52.5t62 36.5t89.5 13.5q41 0 71 -6t53 -13v-108v-10q-16 25 -50 43.5t-78 18.5
q-40 0 -61 -27t-21 -63v-32h251q-2 -2 -10.5 -22t-8.5 -54v-257z" />
    <glyph glyph-name="uniFB02" unicode="fl" horiz-adv-x="464" 
d="M424 75q0 -17 4 -30t9 -22.5t9.5 -15t6.5 -7.5h-165q15 17 19.5 36t3.5 39v428q-11 11 -28 19t-41 8q-29 0 -48 -13t-19 -48v-61h85v-71h-85v-262q0 -33 12.5 -52t17.5 -23h-169q18 15 22 34.5t4 40.5v262h-63v71h63v63q0 31 11 56t30.5 42t45.5 26.5t56 9.5
q34 0 59.5 -8t47.5 -20q0 5 0.5 12.5t0.5 9.5h140q-1 -1 -5.5 -7t-10 -15.5t-9.5 -23t-4 -30.5v-448z" />
    <glyph glyph-name=".notdef" horiz-adv-x="512" 
 />
    <glyph glyph-name="uni0000" horiz-adv-x="2" 
 />
    <glyph glyph-name="uni0000" horiz-adv-x="2" 
 />
    <glyph glyph-name="uni0009" horiz-adv-x="512" 
 />
    <glyph glyph-name="space" unicode=" " horiz-adv-x="167" 
 />
    <glyph glyph-name="exclam" unicode="!" horiz-adv-x="208" 
d="M40 589h131l-2 -94l-28 -311h-69l-30 311zM30 66q0 14 6 27.5t16 24t24 17t30 6.5t30 -6.5t24 -17t16 -24t6 -27.5t-6 -27t-16 -23t-24 -16t-30 -6t-30 6t-24 16t-16 23t-6 27z" />
    <glyph glyph-name="quotedbl" unicode="&#x22;" horiz-adv-x="307" 
d="M30 605h105v-93l-11 -132h-83l-11 132v93zM170 605h104v-93l-11 -132h-83l-10 132v93z" />
    <glyph glyph-name="numbersign" unicode="#" horiz-adv-x="556" 
d="M261 0l26 132h-89q-6 -31 -12.5 -66t-12.5 -66h-93l25 132h-74v81h89l32 163h-92v81h107q6 32 13.5 66.5t12.5 65.5h93l-25 -132h89q6 32 12.5 66.5t12.5 65.5h94l-27 -132h76v-81h-90l-32 -163h92v-81h-107q-6 -31 -13.5 -66t-12.5 -66h-94zM303 213l31 163h-89
l-31 -163h89z" />
    <glyph glyph-name="dollar" unicode="$" horiz-adv-x="418" 
d="M284 145q0 19 -8 33.5t-20.5 26t-29.5 21t-35 18.5q-30 14 -60.5 32.5t-55 42.5t-40 53t-15.5 65q0 34 14.5 62.5t40.5 49.5t61 32.5t77 11.5q58 0 97 -11t63 -25v-97l-24 -3q-11 24 -41.5 41t-71.5 17q-49 0 -72 -19.5t-23 -44.5q0 -15 9 -28.5t23.5 -25.5t33.5 -23.5
t39 -21.5q33 -18 62 -37t50.5 -42.5t34 -51.5t12.5 -63q0 -37 -16 -68t-44.5 -53.5t-67 -35t-84.5 -12.5q-60 0 -101.5 11t-65.5 24l-9 108l23 3q7 -13 22 -25.5t33.5 -22t39 -15t40.5 -5.5q26 0 46.5 7t34.5 18t21 25t7 28zM186 654h53v-737h-53v737z" />
    <glyph glyph-name="percent" unicode="%" horiz-adv-x="592" 
d="M128 0h-97q6 10 15 22t27 37t49 67.5t81 113.5l244 345h99zM319 145q0 37 10.5 66.5t27.5 49.5t40 30.5t48 10.5t48.5 -10.5t40.5 -30.5t27.5 -49.5t10.5 -66.5q0 -35 -10.5 -63t-27.5 -47.5t-40.5 -30t-48.5 -10.5t-48 10.5t-40 30t-27.5 47.5t-10.5 63zM412 145
q0 -41 9 -65.5t24 -24.5t24 24.5t9 65.5q0 45 -9 70.5t-24 25.5t-24 -25.5t-9 -70.5zM9 434q0 37 10 66.5t27.5 49.5t40.5 30.5t49 10.5q25 0 48.5 -10.5t40.5 -30.5t27.5 -49.5t10.5 -66.5q0 -35 -10.5 -63t-27.5 -47.5t-40.5 -30t-48.5 -10.5q-26 0 -49 10.5t-40.5 30
t-27.5 47.5t-10 63zM103 434q0 -41 9 -65.5t24 -24.5t23.5 24.5t8.5 65.5q0 45 -8.5 70.5t-23.5 25.5t-24 -25.5t-9 -70.5z" />
    <glyph glyph-name="ampersand" unicode="&#x26;" horiz-adv-x="651" 
d="M410 464q0 -26 -9 -47.5t-24.5 -40t-35 -33t-40.5 -25.5l120 -126q11 21 14.5 38.5t5.5 35.5q2 20 -5.5 39.5t-27.5 33.5h180q-20 -11 -34.5 -28.5t-18.5 -50.5q-2 -24 -12.5 -63t-32.5 -76q22 -23 47.5 -34t46.5 -11q19 0 54 26q0 -17 -5.5 -36t-18 -34.5t-32 -26
t-46.5 -10.5q-35 0 -64 13t-56 37q-33 -23 -77 -36.5t-107 -13.5q-42 0 -81.5 11t-69.5 32t-48.5 51.5t-18.5 69.5q0 32 11 58.5t28.5 48t39 38t43.5 28.5q-26 26 -44.5 57t-18.5 68q0 28 12.5 53t34.5 43t51.5 28.5t64.5 11.5q42 0 74.5 -10.5t54.5 -28t33.5 -41
t11.5 -49.5zM241 71q69 0 113 38l-161 165q-26 -17 -45 -41.5t-19 -62.5q0 -43 32 -71t80 -28zM295 465q-1 23 -15 39t-36 16q-25 0 -39.5 -17.5t-14.5 -38.5q0 -25 14 -45.5t37 -41.5q55 36 54 88z" />
    <glyph glyph-name="quotesingle" unicode="'" horiz-adv-x="160" 
d="M29 605h105v-93l-11 -132h-83l-11 132v93z" />
    <glyph glyph-name="parenleft" unicode="(" horiz-adv-x="276" 
d="M186 -145q-81 96 -119 189t-37 186q-1 92 37 184.5t119 189.5h92q-29 -38 -53 -84t-42 -95.5t-28 -99.5t-10 -95t10 -95t28 -100t42 -96.5t53 -83.5h-92z" />
    <glyph glyph-name="parenright" unicode=")" horiz-adv-x="276" 
d="M-4 -145q29 37 53.5 83.5t42.5 96.5t28 100t10 95t-10 95t-28 99.5t-42.5 95.5t-53.5 84h93q82 -97 119.5 -189.5t36.5 -184.5q1 -93 -37 -186t-119 -189h-93z" />
    <glyph glyph-name="asterisk" unicode="*" horiz-adv-x="315" 
d="M155 391q-11 -20 -23.5 -41t-22.5 -38l-88 52l68 70q-22 2 -47 6t-44 8l32 94l83 -41l-15 94h114l-13 -93l81 39l32 -92l-91 -15l68 -70l-88 -52z" />
    <glyph glyph-name="plus" unicode="+" 
d="M286 458v-151h157v-81h-157v-152h-93v152h-156v81h156v151h93z" />
    <glyph glyph-name="comma" unicode="," horiz-adv-x="211" 
d="M182 51q0 -24 -8 -48t-25 -45.5t-43 -38t-62 -24.5l-10 14q18 14 33.5 35.5t15.5 36.5q0 6 -2.5 11.5t-7.5 7.5q-20 8 -31.5 27.5t-11.5 38.5q0 14 6 27.5t16 24t24 17t30 6.5q32 0 54 -26t22 -64z" />
    <glyph glyph-name="hyphen" unicode="-" horiz-adv-x="362" 
d="M36 258h286v-81h-286v81z" />
    <glyph glyph-name="period" unicode="." horiz-adv-x="211" 
d="M30 66q0 14 6 27.5t16 24t24 17t30 6.5t30 -6.5t24 -17t16 -24t6 -27.5t-6 -27t-16 -23t-24 -16t-30 -6t-30 6t-24 16t-16 23t-6 27z" />
    <glyph glyph-name="slash" unicode="/" horiz-adv-x="311" 
d="M-1 -146l224 750h93l-223 -750h-94z" />
    <glyph glyph-name="zero" unicode="0" horiz-adv-x="507" 
d="M10 289q0 72 18 128.5t50.5 95.5t76.5 59.5t95 20.5q53 0 97 -20.5t76 -59.5t49.5 -95.5t17.5 -128.5q0 -68 -17.5 -122.5t-49.5 -93t-76 -59t-97 -20.5q-51 0 -95 20.5t-76.5 59t-50.5 93t-18 122.5zM137 289q0 -48 7.5 -88t21.5 -68.5t35.5 -44t49.5 -15.5t49.5 15.5
t35 44t20.5 68.5t7 88q0 103 -27.5 163t-84.5 60t-85.5 -60t-28.5 -163z" />
    <glyph glyph-name="one" unicode="1" horiz-adv-x="300" 
d="M34 501l145 84h60q-5 -4 -10.5 -28.5t-5.5 -67.5v-393q0 -20 5.5 -37t13 -29.5t13.5 -20.5t8 -9h-197l16 15q1 0 5 5.5t9 15.5t9 25t4 35v367q-4 0 -10.5 -2t-16.5 -5l-48 -13v58z" />
    <glyph glyph-name="two" unicode="2" horiz-adv-x="432" 
d="M402 437q0 -24 -9 -48t-35 -62t-72 -96.5t-119 -149.5h133q39 0 68.5 18.5t43.5 38.5l-10 -138h-383l1 66q28 38 58 75.5t56 69.5q30 37 57 70.5t47 62.5t31.5 53.5t11.5 43.5q0 13 -6 26t-17.5 23.5t-29 17.5t-41.5 7q-42 0 -80 -22.5t-58 -58.5v26v97q25 14 63.5 25
t95.5 11q42 0 77.5 -11.5t61.5 -32.5t40.5 -49.5t14.5 -62.5z" />
    <glyph glyph-name="three" unicode="3" horiz-adv-x="432" 
d="M403 171q0 -39 -16.5 -71t-44 -55t-64.5 -36t-79 -13q-58 0 -96.5 11t-63.5 25v97v26q9 -17 24 -31.5t33.5 -26t39 -18t40.5 -6.5q24 0 43.5 8t33 21.5t21 30.5t7.5 35t-5.5 35.5t-19 31t-36 22.5t-56.5 11h-61v74h62q34 1 56 9.5t35.5 22.5t19 31.5t5.5 35.5q0 13 -6 26
t-17.5 23.5t-29 17.5t-41.5 7q-42 0 -77.5 -20.5t-60.5 -61.5v27v97q25 14 63.5 25t96.5 11q42 0 77.5 -11.5t61.5 -32.5t40.5 -49.5t14.5 -62.5q0 -15 -5 -33t-16.5 -36t-29 -34t-42.5 -28q25 -11 42.5 -27.5t29 -35.5t16.5 -38t5 -34z" />
    <glyph glyph-name="four" unicode="4" horiz-adv-x="479" 
d="M457 159h-83v-63q0 -20 5.5 -37t13 -29.5t13.5 -20.5t8 -9h-196l14 15q1 0 5 5.5t9 15.5t9 25t4 35v63h-241v63l258 363h113q-5 -4 -10 -28.5t-5 -67.5v-247q23 2 47 7t45 22zM259 242v199q-14 -22 -33 -50.5t-39 -57t-38.5 -53t-30.5 -38.5h141z" />
    <glyph glyph-name="five" unicode="5" horiz-adv-x="430" 
d="M154 367h38q65 0 107 -19t66.5 -47.5t34 -60.5t9.5 -59q0 -39 -16 -72.5t-44 -58.5t-64.5 -39.5t-78.5 -14.5q-57 0 -99.5 11t-67.5 25v115q6 -12 21.5 -25t36 -24t43.5 -18t44 -7q24 0 43 9.5t32.5 24t21 33t7.5 36.5q0 19 -5.5 38.5t-19 35t-35.5 25.5t-56 11h-128
l25 299h307l5 -106v-17q-10 17 -40 29.5t-70 12.5h-107z" />
    <glyph glyph-name="six" unicode="6" horiz-adv-x="446" 
d="M256 514q-20 0 -39.5 -10.5t-35.5 -30t-27.5 -46.5t-14.5 -60q21 11 49 19t57 8q52 0 88 -18t58.5 -45.5t33 -61.5t10.5 -66q0 -42 -16.5 -80t-45 -66.5t-65.5 -45.5t-79 -17q-51 0 -91 20t-68.5 56.5t-43.5 87t-15 111.5q0 71 19 130.5t52.5 102.5t78.5 67t96 24
q69 0 133 -23l2 -122q-32 37 -66.5 51.5t-69.5 14.5zM223 312q-18 0 -43 -9t-42 -28q2 -98 24.5 -150t62.5 -52q21 0 37 10.5t27 27.5t16.5 39t5.5 45q0 54 -20 85.5t-68 31.5z" />
    <glyph glyph-name="seven" unicode="7" horiz-adv-x="406" 
d="M398 547q-15 -29 -34 -72t-40 -94t-42 -105.5t-38 -106t-28.5 -95.5t-14.5 -74h-133q3 31 15.5 71.5t30.5 86t40.5 93.5t47.5 94t50.5 87t49.5 72h-184q-20 0 -37 -5.5t-31.5 -14t-25.5 -19t-18 -20.5l11 140h382z" />
    <glyph glyph-name="eight" unicode="8" horiz-adv-x="450" 
d="M15 165q0 19 7 40t20 40.5t31.5 35.5t41.5 27q-42 27 -61 62.5t-19 65.5q0 34 14 62.5t39 49.5t59 33t74 12t74.5 -12t60 -33t40 -49.5t14.5 -62.5q0 -15 -2.5 -31.5t-10 -33t-22.5 -33t-40 -32.5q27 -15 45.5 -32.5t30 -36.5t16.5 -37t5 -34q0 -39 -17 -70.5t-46 -53.5
t-67 -34t-80 -12q-41 0 -78.5 11.5t-66 33.5t-45.5 53.5t-17 70.5zM310 162q0 17 -9 31t-24.5 26t-36 21.5t-42.5 17.5q-32 -13 -47 -38t-15 -58q0 -17 6.5 -32.5t17.5 -28t27 -20t36 -7.5q42 0 64.5 27.5t22.5 60.5zM292 437q0 12 -4 26t-13 25t-22.5 18.5t-31.5 7.5
t-31 -6.5t-21.5 -17t-12 -23t-3.5 -24.5q0 -32 22 -51t63 -39q30 13 42 31.5t12 52.5z" />
    <glyph glyph-name="nine" unicode="9" horiz-adv-x="449" 
d="M185 73q20 0 39.5 10.5t35.5 30t27 46t14 59.5q-20 -11 -47.5 -18t-56.5 -7q-53 0 -89.5 17.5t-59.5 45.5t-33.5 62t-10.5 66q0 42 17 79.5t45.5 66t66.5 45.5t79 17q51 0 91.5 -20t68.5 -56.5t43 -87t15 -111.5q0 -71 -19 -130.5t-52.5 -102.5t-78.5 -67t-96 -24
q-70 0 -133 24l-1 119q31 -36 65.5 -50t69.5 -14zM217 275q20 0 44.5 8.5t40.5 29.5q-2 97 -24 149t-63 52q-20 0 -36.5 -10.5t-27.5 -27.5t-17 -39t-6 -44q0 -54 21 -86t68 -32z" />
    <glyph glyph-name="colon" unicode=":" horiz-adv-x="211" 
d="M30 56q0 29 22 47t54 18t54 -18t22 -47q0 -28 -22 -45t-54 -17t-54 17t-22 45zM30 346q0 29 22 46.5t54 17.5t54 -17.5t22 -46.5t-22 -46t-54 -17t-54 17t-22 46z" />
    <glyph glyph-name="semicolon" unicode=";" horiz-adv-x="211" 
d="M30 346q0 29 22 46.5t54 17.5t54 -17.5t22 -46.5t-22 -46t-54 -17t-54 17t-22 46zM182 41q0 -48 -33 -88.5t-105 -57.5l-10 14q18 14 33.5 35.5t15.5 36.5q0 6 -2.5 11.5t-7.5 7.5q-43 16 -43 56q0 29 22 47t54 18t54 -21t22 -59z" />
    <glyph glyph-name="less" unicode="&#x3c;" 
d="M443 447v-83l-276 -98q68 -23 139 -49t137 -49v-83l-406 145v73z" />
    <glyph glyph-name="equal" unicode="=" 
d="M443 240v-82h-406v82h406zM443 373v-80h-406v80h406z" />
    <glyph glyph-name="greater" unicode="&#x3e;" 
d="M443 303v-73l-406 -145v83l276 98q-68 23 -139 49t-137 49v83z" />
    <glyph glyph-name="question" unicode="?" horiz-adv-x="380" 
d="M100 200q0 30 7.5 52.5t19 41t26 33.5t29.5 30q20 21 36 42.5t16 51.5q0 25 -23.5 44.5t-60.5 19.5q-18 0 -38 -6t-38.5 -16t-32.5 -22.5t-18 -25.5v112q33 16 79 26t87 10q77 0 122 -39.5t45 -108.5q0 -25 -8 -45t-21 -37.5t-29.5 -32.5t-33.5 -30q-14 -12 -27 -22.5
t-23.5 -21.5t-16.5 -24.5t-6 -31.5v-16h-91v16zM70 66q0 14 6 27.5t16 24t24 17t30 6.5t30 -6.5t24 -17t16 -24t6 -27.5t-6 -27t-16 -23t-24 -16t-30 -6t-30 6t-24 16t-16 23t-6 27z" />
    <glyph glyph-name="at" unicode="@" horiz-adv-x="658" 
d="M482 131q-15 0 -30.5 2.5t-29.5 8.5t-25 16.5t-15 25.5q-18 -32 -44 -45.5t-60 -13.5q-25 0 -47.5 11t-38.5 31t-24 49.5t-5 66.5q4 37 17.5 68.5t33.5 54t45 35t53 12.5q20 0 40 -8.5t27 -26.5q0 2 1 14t1 17h106q-9 -9 -12 -22.5t-6 -39.5l-11 -107q-2 -11 -2 -19.5
v-16.5q0 -32 8.5 -43t25.5 -11q26 0 43.5 31t17.5 85q0 48 -17.5 88.5t-48 70.5t-71 47t-86.5 17q-42 0 -81 -17t-69.5 -48.5t-48.5 -76.5t-18 -101q0 -53 18.5 -96t48.5 -73t69 -46.5t81 -16.5q44 0 93.5 10t87.5 26l-14 -69q-35 -15 -79.5 -24.5t-89.5 -9.5
q-63 0 -119 21.5t-98 61t-66.5 94.5t-24.5 122q0 71 24.5 128t66.5 96.5t98 61t119 21.5q64 0 120.5 -22t98.5 -60t66.5 -90.5t24.5 -112.5q0 -38 -10.5 -70.5t-30 -56t-48 -37t-65.5 -13.5zM263 285q-6 -54 7.5 -74.5t32.5 -20.5q16 0 33.5 14.5t21.5 51.5l12 101
q-1 14 -12 23t-23 9q-28 -1 -47.5 -27t-24.5 -77z" />
    <glyph glyph-name="A" unicode="A" horiz-adv-x="601" 
d="M381 180h-191l-30 -86q-4 -11 -5.5 -20.5t-1.5 -17.5q0 -22 10.5 -36t17.5 -20h-175q5 3 22.5 30t32.5 69l142 392q3 8 5.5 19.5t1.5 23.5t-7 23.5t-20 19.5h169q12 -24 25.5 -56.5t34 -86t51 -134.5t75.5 -201q17 -40 33.5 -68t21.5 -31h-192q5 5 11.5 19t6.5 34
q0 8 -1.5 18t-6.5 23zM217 257h134l-68 184z" />
    <glyph glyph-name="B" unicode="B" horiz-adv-x="480" 
d="M425 430q0 -35 -20.5 -65.5t-58.5 -46.5q56 -20 84 -59t28 -83q0 -41 -17 -74t-47.5 -55.5t-74 -34.5t-96.5 -12h-194h-15q1 0 6.5 7.5t12.5 20.5t12.5 30.5t5.5 37.5v393q0 21 -4 38t-9.5 29.5t-10.5 20t-6 8.5h180q106 0 165 -36t59 -119zM165 270v-189h48
q55 0 84.5 28.5t29.5 73.5q0 41 -28.5 64t-83.5 23h-50zM165 504v-158h41q40 0 64 21.5t24 56.5q0 43 -25 61.5t-65 18.5h-39z" />
    <glyph glyph-name="C" unicode="C" horiz-adv-x="512" 
d="M142 289q0 -48 15 -88.5t40.5 -69.5t58.5 -45t69 -16q21 0 44.5 4.5t46 13.5t43 24t35.5 36v-113q-33 -20 -81.5 -30.5t-102.5 -10.5q-59 0 -113 20.5t-95.5 59t-66.5 93t-25 122.5q0 72 26 128.5t69 95.5t97 59.5t111 20.5q62 0 105 -11t69 -25v-120q-24 39 -67 58.5
t-97 19.5q-38 0 -70.5 -16t-57.5 -45.5t-39 -71t-14 -93.5z" />
    <glyph glyph-name="D" unicode="D" horiz-adv-x="547" 
d="M30 0h-15q1 0 6.5 7.5t12 20.5t12 30.5t5.5 37.5v393q0 21 -5.5 38t-13 29.5t-14 20t-7.5 8.5h229q60 0 113 -19t92.5 -56.5t62 -93t22.5 -127.5q0 -68 -22.5 -121.5t-62 -91t-92.5 -57t-113 -19.5h-210zM165 504v-426h76q36 0 66 15t51.5 42.5t33 66.5t11.5 87
q0 103 -44.5 159t-117.5 56h-76z" />
    <glyph glyph-name="E" unicode="E" horiz-adv-x="405" 
d="M381 0h-352h-15q1 0 6.5 7.5t12 20.5t12 30.5t5.5 37.5v393q0 21 -5 38t-11.5 30t-12 20.5t-6.5 7.5h14h353l5 -114l1 -16q-12 21 -41.5 35t-69.5 14h-113v-164h115q29 0 54 10.5t32 18.5v-134q-1 1 -9 5.5t-20 9t-27 8.5t-30 4h-115v-181h113q39 0 68.5 16t42.5 36
l-1 -15z" />
    <glyph glyph-name="F" unicode="F" horiz-adv-x="404" 
d="M164 262v-166q0 -20 6 -37t13.5 -30t14 -20.5t8.5 -8.5h-191q1 1 7 9t12 20.5t11 29.5t5 37v393q0 21 -5 38t-11.5 30t-12 20.5t-6.5 7.5h14h353l5 -114l1 -17q-12 22 -41.5 36t-70.5 14h-112v-164h115q28 0 53 10.5t33 18.5v-134q-1 1 -9 5.5t-20 9t-27 8.5t-30 4h-115z
" />
    <glyph glyph-name="G" unicode="G" horiz-adv-x="578" 
d="M533 56q-42 -32 -102 -47t-121 -15q-59 0 -113 20.5t-95 59t-66 93t-25 122.5q0 72 28 128.5t74 95.5t104 59.5t117 20.5q61 0 104.5 -11t69.5 -25v-138q-28 44 -70 70t-94 26q-42 0 -78.5 -16t-64 -45.5t-43.5 -71t-16 -93.5q0 -48 14.5 -88.5t39.5 -69.5t58 -45t70 -16
q24 0 48.5 5t47.5 16v116q0 37 -13 58t-21 28l180 -1q-6 -5 -19.5 -26t-13.5 -59v-151z" />
    <glyph glyph-name="H" unicode="H" horiz-adv-x="560" 
d="M509 96q0 -20 4 -37t9 -29.5t9.5 -20.5t6.5 -9h-165h-8q1 0 5.5 7.5t10 20.5t10 30.5t4.5 37.5v172h-230v-172q0 -20 4.5 -36.5t10.5 -29.5t11.5 -20.5t7.5 -9.5h-159h-18q1 0 5.5 7.5t9.5 20.5t9.5 30.5t4.5 37.5v393q0 21 -4 38t-9.5 29.5t-10.5 20t-6 8.5h181
q-2 -1 -8 -8t-12.5 -20t-11.5 -30t-5 -38v-144h230v144q0 21 -4.5 38t-9.5 29.5t-10 20t-6 8.5h173q-1 -1 -5.5 -8t-10 -19.5t-9.5 -30t-4 -38.5v-393z" />
    <glyph glyph-name="I" unicode="I" horiz-adv-x="209" 
d="M163 96q0 -20 4.5 -36.5t10.5 -29.5t11.5 -20.5t7.5 -9.5h-169h-13q1 0 6.5 7.5t11.5 20.5t11 30.5t5 37.5v393q0 21 -4 38t-9.5 29.5t-10.5 20t-6 8.5h181q-2 -1 -8 -8t-12.5 -20t-11.5 -30t-5 -38v-393z" />
    <glyph glyph-name="J" unicode="J" horiz-adv-x="209" 
d="M163 67q0 -61 -15.5 -101t-39 -64t-49.5 -33.5t-47 -9.5q-34 0 -56 15t-36 41q21 0 43.5 6.5t41.5 24t31.5 49t12.5 81.5v413q0 21 -4 38t-9.5 29.5t-10.5 20t-6 8.5h180q-2 -1 -7.5 -8t-12 -20t-11.5 -30t-5 -38v-422z" />
    <glyph glyph-name="K" unicode="K" horiz-adv-x="540" 
d="M165 340l131 173v-1q11 13 14.5 23t3.5 17q0 8 -5 18t-13 15h185h19q-6 -3 -17 -10.5t-24.5 -18.5t-27.5 -25t-27 -29l-133 -173q47 -63 85 -123.5t85 -123.5q10 -14 24.5 -27.5t28 -24.5t25 -19t16.5 -11h-14h-219q11 7 16 15.5t5 16.5q0 16 -16 41q-20 26 -37.5 51
t-34 50t-33.5 50t-37 52v-180q0 -20 4.5 -36.5t10.5 -29.5t11.5 -20.5t7.5 -9.5h-159h-22q1 0 6 7.5t11 20.5t11 30.5t5 37.5v393q0 21 -4 38t-9.5 29.5t-10.5 20t-6 8.5h181q-2 -1 -8 -8t-12.5 -20t-11.5 -30t-5 -38v-149z" />
    <glyph glyph-name="L" unicode="L" horiz-adv-x="401" 
d="M381 0h-352h-16q1 0 6.5 7.5t12.5 20.5t12.5 30.5t5.5 37.5v393q0 21 -4 38t-9.5 29.5t-10.5 20t-6 8.5h181q-2 -1 -8 -8t-12.5 -20t-11.5 -30t-5 -38v-408h112q40 0 69 11.5t43 43.5l-1 -14z" />
    <glyph glyph-name="M" unicode="M" horiz-adv-x="715" 
d="M361 168q63 150 111 257t70 160h140q-2 -1 -6.5 -8.5t-10 -20t-9.5 -29.5t-4 -38v-393q0 -20 6.5 -37.5t14.5 -30.5t15 -20.5t8 -7.5h-23h-165q1 1 6 9t10.5 20.5t9.5 29.5t4 37v265q-28 -57 -54 -115.5t-46.5 -109t-35 -87t-19.5 -49.5h-58q-4 10 -13.5 30t-22.5 45.5
t-28.5 55t-31.5 58.5q-34 64 -53.5 108t-28.5 64v-265q0 -20 4 -37t9 -29.5t9.5 -20.5t6.5 -9h-141h-19q1 0 6.5 7.5t12 20.5t11.5 30.5t5 37.5v393q0 21 -4 38t-9.5 29.5t-10.5 20t-6 8.5h118z" />
    <glyph glyph-name="N" unicode="N" horiz-adv-x="564" 
d="M513 0h-63l-302 382v-286q0 -20 4 -37t9 -29.5t9.5 -20.5t6.5 -9h-160l8 10q2 1 12.5 23t10.5 63v393q0 21 -5.5 38t-13 29.5t-14 20t-7.5 8.5h118q17 -21 44 -53t57 -69t61.5 -75.5t58 -72t45 -59t24.5 -36.5v269q0 21 -4.5 38t-9.5 29.5t-10.5 20t-6.5 8.5h165
q-2 -1 -8 -8t-12 -20t-11 -30t-5 -38z" />
    <glyph glyph-name="O" unicode="O" horiz-adv-x="610" 
d="M11 289q0 72 23 128.5t63 95.5t92 59.5t111 20.5q60 0 113 -20.5t92.5 -59.5t62 -95.5t22.5 -128.5q0 -68 -22.5 -122.5t-62 -93t-92.5 -59t-113 -20.5q-59 0 -111 20.5t-92 59t-63 93t-23 122.5zM137 289q0 -48 12.5 -88t34 -68.5t51.5 -44t66 -15.5t66 15.5t51.5 44
t33 68.5t11.5 88q0 51 -11.5 92.5t-33 70.5t-51.5 44.5t-66 15.5t-66 -15.5t-51.5 -44.5t-34 -70.5t-12.5 -92.5z" />
    <glyph glyph-name="P" unicode="P" horiz-adv-x="439" 
d="M165 222v-126q0 -20 4.5 -36.5t10.5 -29.5t11.5 -20.5t7.5 -9.5h-160h-14q1 0 5 7.5t8.5 20.5t8.5 30.5t4 37.5v393q0 21 -4 38t-9.5 29.5t-10.5 20t-6 8.5h164q53 0 98 -10t78 -32.5t51.5 -58t18.5 -86.5q0 -43 -18.5 -75.5t-51.5 -55t-78 -34t-98 -11.5h-20zM165 504
v-203h21q57 0 87.5 26t30.5 71q0 58 -30.5 82t-87.5 24h-21z" />
    <glyph glyph-name="Q" unicode="Q" horiz-adv-x="611" 
d="M612 -31q2 -26 -7.5 -44.5t-25 -30.5t-34.5 -18t-37 -6q-48 0 -103.5 28t-102.5 96h-2q-59 0 -111 20.5t-92 59t-63 93t-23 122.5q0 72 23 128.5t63 95.5t92 59.5t111 20.5q60 0 113 -20.5t92.5 -59.5t62 -95.5t22.5 -128.5q0 -50 -13 -93.5t-37 -78.5t-56.5 -61
t-71.5 -41q25 -33 63 -47.5t75 -14.5q11 0 29.5 3t32.5 13zM138 289q0 -48 12 -88t34 -68.5t51.5 -44t65.5 -15.5t66 15.5t51.5 44t33 68.5t11.5 88q0 51 -11.5 92.5t-33 70.5t-51.5 44.5t-66 15.5t-65.5 -15.5t-51.5 -44.5t-34 -70.5t-12 -92.5z" />
    <glyph glyph-name="R" unicode="R" horiz-adv-x="507" 
d="M165 232v-136q0 -20 4 -36.5t9 -29.5t10.5 -20.5t7.5 -9.5h-176q1 0 6 7.5t10.5 20.5t10 30.5t4.5 37.5v393q0 21 -4 38t-9.5 29.5t-10.5 20t-6 8.5h174q49 0 91 -10.5t72.5 -32t48 -55.5t17.5 -81q0 -26 -7.5 -50.5t-21.5 -45.5t-33 -37t-42 -25q24 -39 51.5 -82.5
t51.5 -83.5q9 -14 21 -27t23 -24t21 -19t16 -12h-215q8 6 14 17t6 22q0 14 -12 34q-24 39 -49.5 78.5t-50.5 80.5h-32zM165 504v-193h22q57 0 83.5 28t26.5 67q0 51 -25.5 74.5t-75.5 23.5h-31z" />
    <glyph glyph-name="S" unicode="S" horiz-adv-x="418" 
d="M284 145q0 19 -8 33.5t-20.5 26t-29.5 21t-35 18.5q-30 14 -60.5 32.5t-55 42.5t-40 53t-15.5 65q0 34 14.5 62.5t40.5 49.5t61 32.5t77 11.5q58 0 97 -11t63 -25v-97v-18q-6 12 -20.5 25t-33.5 23.5t-41 17.5t-42 7q-49 0 -72 -19.5t-23 -44.5q0 -15 9 -28.5t23.5 -25.5
t33.5 -23.5t39 -21.5q33 -18 62 -37t50.5 -42.5t34 -51.5t12.5 -63q0 -37 -16 -68t-44.5 -53.5t-67 -35t-84.5 -12.5q-60 0 -101.5 11t-65.5 24l-9 108v12q7 -13 25.5 -26.5t41 -25t47 -18.5t44.5 -7q26 0 46.5 7t34.5 18t21 25t7 28z" />
    <glyph glyph-name="T" unicode="T" horiz-adv-x="486" 
d="M15 585h456l2 -133q-13 18 -24.5 28t-24 15.5t-27.5 7t-34 1.5h-63v-408q0 -20 5.5 -37t13 -29.5t13.5 -20.5t8 -9h-176h-12q1 0 6.5 7.5t12 20t11.5 30t5 38.5v408h-64q-19 0 -34 -2t-28 -8t-25 -17t-24 -29z" />
    <glyph glyph-name="U" unicode="U" horiz-adv-x="562" 
d="M165 198q0 -57 26.5 -91t80.5 -34q29 0 64 12t59 29v375q0 21 -4.5 38t-9.5 29.5t-10 20t-6 8.5h173q-1 -1 -5.5 -8t-10 -19.5t-9.5 -30t-4 -38.5v-393q0 -20 4.5 -37t10.5 -29.5t11 -20.5t7 -9h-137l-8 46q-16 -13 -35.5 -22.5t-39.5 -16t-39 -10t-34 -3.5q-56 0 -94 15
t-61 42t-33 63.5t-10 80.5v294q0 21 -4 38t-9.5 29.5t-10.5 20t-6 8.5h181q-2 -1 -8 -8t-12.5 -20t-11.5 -30t-5 -38v-291z" />
    <glyph glyph-name="V" unicode="V" horiz-adv-x="600" 
d="M310 177l123 315q7 21 7 39q0 10 -4 20t-9 17.5t-9 12t-5 4.5h181q-2 -1 -9 -9t-16.5 -21t-20 -30.5t-19.5 -38.5q-47 -110 -78.5 -185.5t-54 -130.5t-39.5 -94.5t-33 -75.5h-57l-206 486q-9 20 -19 37.5t-19.5 31t-16.5 21.5t-9 9h207q-4 -5 -13.5 -20.5t-9.5 -33.5
t7 -39z" />
    <glyph glyph-name="W" unicode="W" horiz-adv-x="831" 
d="M268 207l128 378h57l126 -379l83 285q6 21 6 40q0 18 -8.5 33.5t-13.5 20.5h179q-2 -2 -8.5 -9.5t-14.5 -20.5t-17 -30.5t-16 -38.5q-38 -110 -63.5 -189t-43.5 -135.5t-30 -94.5t-23 -67h-75l-123 343q-25 -69 -43.5 -120.5t-32.5 -91.5t-25 -71.5t-20 -59.5h-76
l-160 486q-7 21 -15.5 38.5t-16 30.5t-13 21t-6.5 9h199q-5 -5 -14 -20t-9 -33q0 -19 7 -41z" />
    <glyph glyph-name="X" unicode="X" horiz-adv-x="598" 
d="M365 316l150 -234q19 -29 39 -53t31 -29h-219q5 3 11 15t6 23q0 8 -2.5 16t-9.5 19q-24 38 -43.5 68t-43.5 68l-97 -136q-8 -13 -11.5 -21.5t-3.5 -16.5q0 -9 6.5 -18.5t16.5 -16.5h-177q17 14 32.5 33.5t35.5 48.5l146 208l-136 213q-18 31 -41 53t-36 29h233
q-5 -3 -14.5 -15t-9.5 -23q0 -7 2.5 -16t9.5 -20v1q21 -34 37 -58.5t38 -57.5l82 116q7 12 11 21.5t4 16.5q0 10 -6 19.5t-16 15.5h181q-11 -5 -31.5 -29t-40.5 -53z" />
    <glyph glyph-name="Y" unicode="Y" horiz-adv-x="568" 
d="M341 233v-137q0 -20 5 -37t12 -29.5t12.5 -20.5t7.5 -9h-185q1 0 6.5 7.5t11.5 20.5t11 30.5t5 37.5v136l-159 272v-1q-17 27 -34 50t-27 32h199q-2 -5 -7 -16t-5 -22q0 -16 10 -36l-1 1l104 -173l92 172h-1q9 21 9 35q0 11 -6 24t-8 15h167q-3 -2 -10 -9.5t-16.5 -18.5
t-20.5 -25t-20 -29v1z" />
    <glyph glyph-name="Z" unicode="Z" horiz-adv-x="490" 
d="M11 65q11 19 37.5 58t62.5 90.5t78.5 111t85.5 119.5h-1q13 18 21.5 29.5t21.5 30.5h-196q-19 0 -34 -1.5t-27.5 -7t-24 -15.5t-24.5 -28l2 133h458v-55q-8 -15 -27.5 -44t-47 -68t-62 -87t-73.5 -102l-105 -148h205q19 0 34 2t28 7.5t24.5 16.5t23.5 29l-2 -136h-459z
" />
    <glyph glyph-name="bracketleft" unicode="[" horiz-adv-x="295" 
d="M270 -145h-224q2 22 3 46t1 50v538q0 21 -0.5 35.5t-1 25t-1 19t-1.5 16.5h226l7 -89q-18 17 -45.5 22t-66.5 5h-3v-605h3q20 0 34.5 1t27.5 3.5t24.5 7.5t25.5 14z" />
    <glyph glyph-name="backslash" unicode="\" horiz-adv-x="311" 
d="M223 -146l-224 750h94l223 -750h-93z" />
    <glyph glyph-name="bracketright" unicode="]" horiz-adv-x="295" 
d="M16 -56q14 -9 25.5 -14t24.5 -7.5t27.5 -3.5t34.5 -1h3v605h-3q-39 0 -66.5 -5t-45.5 -22l7 89h226q-1 -8 -1.5 -16.5t-1 -19t-1 -25t-0.5 -35.5v-538q0 -26 1 -50t3 -46h-224z" />
    <glyph glyph-name="asciicircum" unicode="^" horiz-adv-x="377" 
d="M378 296h-95l-95 194l-96 -194h-95l156 316h68z" />
    <glyph glyph-name="underscore" unicode="_" horiz-adv-x="399" 
d="M404 -50v-82h-414v82h414z" />
    <glyph glyph-name="grave" unicode="`" horiz-adv-x="226" 
d="M-29 575q0 4 16.5 5.5t36.5 2.5q23 1 53 1q0 -13 10 -31.5t25 -38t31.5 -37.5t30.5 -29h-73q-14 7 -36 20.5t-43 30.5t-36 36.5t-15 39.5z" />
    <glyph glyph-name="a" unicode="a" horiz-adv-x="410" 
d="M247 274q0 65 -64 65q-72 0 -128 -47v94q11 4 27.5 9t35 9t38 7t36.5 3q35 0 66 -8t53.5 -25.5t35.5 -45.5t13 -69v-191q0 -17 4 -30t9 -22.5t9.5 -15t6.5 -7.5h-136q-1 4 -1.5 12.5t-1.5 13.5q-9 -7 -22.5 -13t-29 -10t-31.5 -6t-28 -2q-56 0 -90 31t-34 77q0 42 20 71
t52.5 48t74 28.5t85.5 11.5v12zM128 119q0 -28 17.5 -39.5t40.5 -11.5q17 0 33.5 6.5t27.5 16.5v105q-20 -2 -41.5 -7t-38.5 -14.5t-28 -23t-11 -32.5z" />
    <glyph glyph-name="b" unicode="b" horiz-adv-x="457" 
d="M164 370q23 23 49 33t53 10q37 0 67 -14t51.5 -40.5t33.5 -64t12 -84.5q0 -50 -18 -89t-47 -66t-67 -41t-77 -14h-176h-13q2 1 10.5 21.5t8.5 53.5v448q0 33 -8 52.5t-12 23.5h152q-2 -2 -10.5 -22t-8.5 -54v-153zM318 205q0 72 -23.5 100.5t-60.5 28.5q-20 0 -39 -11
t-31 -26v-223h35q22 0 43 8t38 24.5t27.5 41t10.5 57.5z" />
    <glyph glyph-name="c" unicode="c" horiz-adv-x="370" 
d="M129 200q0 -61 30.5 -98t81.5 -37q28 0 59 13t57 48l-2 -98q-15 -11 -52 -22.5t-85 -11.5q-42 0 -79.5 13.5t-65.5 40t-44 64.5t-16 88t17.5 90t46.5 67.5t67.5 42t80.5 14.5q17 0 35 -2.5t35 -6t31.5 -8.5t24.5 -9v-94q-40 46 -110 46q-51 0 -81.5 -38t-30.5 -102z" />
    <glyph glyph-name="d" unicode="d" horiz-adv-x="435" 
d="M13 198q0 45 15.5 84t42.5 68t62.5 46t75.5 17q17 0 35.5 -2t36.5 -9v121q0 33 -9.5 52.5t-14.5 23.5h158q-2 -1 -11.5 -22t-9.5 -54v-448q0 -33 8 -52t12 -23h-122q-3 6 -5.5 15t-4.5 21q-19 -20 -46 -30.5t-52 -10.5q-37 0 -68 14t-54 40t-36 63.5t-13 85.5zM125 202
q0 -36 8 -60.5t20 -39.5t27.5 -22t30.5 -7q20 0 38.5 11t31.5 25v215q-13 5 -25 8.5t-24 3.5q-44 0 -75.5 -33.5t-31.5 -100.5z" />
    <glyph glyph-name="e" unicode="e" horiz-adv-x="435" 
d="M217 413q94 0 143 -52t50 -143v-35h-279q1 -23 10.5 -44t24.5 -37.5t34.5 -26.5t40.5 -10q14 0 32 3t36 10.5t35 19.5t29 30l-4 -100q-16 -11 -54 -22.5t-86 -11.5q-44 0 -83 12.5t-68.5 38t-47 64.5t-17.5 91q0 46 15.5 85t42.5 67.5t64.5 44.5t81.5 16zM219 339
q-35 0 -58.5 -24.5t-28.5 -62.5h164q-5 38 -22.5 62.5t-54.5 24.5z" />
    <glyph glyph-name="f" unicode="f" horiz-adv-x="274" 
d="M269 337h-95v-262q0 -33 9 -52t14 -23h-161q25 22 25 75v262h-63v71h63v63q0 31 11 56t30 42t45 26.5t56 9.5q35 0 59 -6t39 -14v-76v-19q-11 20 -34 30t-40 10q-23 0 -38 -13t-15 -48v-61h95v-71z" />
    <glyph glyph-name="g" unicode="g" horiz-adv-x="410" 
d="M200 2q-18 1 -45 3.5t-51.5 9.5t-42.5 20.5t-18 37.5q0 23 14 39t30 29q-32 18 -51 49.5t-19 69.5q0 37 15 66t39.5 48.5t57 29.5t67.5 10q33 0 57.5 -6t44.5 -12q14 -4 25 -6.5t20 -2.5q8 0 23.5 4t25.5 21q11 -6 17 -19t6 -23q0 -15 -6.5 -25t-17 -14.5t-23 -3.5
t-23.5 8q14 -20 20 -41t6 -34q0 -33 -15 -60.5t-39.5 -47t-56 -30.5t-64.5 -11q-24 0 -39 2t-26 7q-8 -8 -8 -14q0 -12 24.5 -19t63.5 -9q54 -2 89.5 -13t56.5 -27.5t30 -38.5t9 -47q0 -31 -14.5 -58.5t-40 -48t-61.5 -32.5t-78 -12q-38 0 -73 7t-61.5 21t-42 35t-15.5 49
q0 42 25.5 61.5t72.5 19.5q-15 -19 -12 -48q5 -26 30 -45t75 -19q48 0 71 20t23 43q0 9 -4 18t-14.5 17t-29 14t-47.5 8zM135 258q0 -36 17 -59t43 -23q28 0 44 23t16 59q0 41 -16 64t-44 23q-26 0 -43 -23t-17 -64z" />
    <glyph glyph-name="h" unicode="h" horiz-adv-x="463" 
d="M164 375q26 17 55 27.5t56 10.5q43 0 69.5 -12t41 -32.5t19.5 -46t5 -52.5v-195q0 -33 8 -52t11 -23h-153q14 14 18.5 32t3.5 43v189q0 32 -12.5 51.5t-32.5 19.5q-24 0 -45.5 -8.5t-43.5 -24.5v-227q0 -33 7.5 -52t11.5 -23h-153q12 11 16.5 26.5t4.5 48.5v448
q0 33 -8 52.5t-12 23.5h152q-2 -2 -10.5 -22t-8.5 -54v-148z" />
    <glyph glyph-name="i" unicode="i" horiz-adv-x="210" 
d="M162 69q0 -29 9.5 -46.5t15.5 -22.5h-158q4 4 12 23t8 52v257q0 33 -8 52.5t-12 23.5h158q-5 -2 -15 -21.5t-10 -48.5v-269zM30 530q0 13 6 26t16 23.5t23.5 16.5t29.5 6q32 0 53.5 -22.5t21.5 -49.5q0 -29 -21.5 -50.5t-53.5 -21.5t-53.5 21.5t-21.5 50.5z" />
    <glyph glyph-name="j" unicode="j" horiz-adv-x="210" 
d="M162 -39q0 -60 -28 -95t-73 -35q-33 0 -54.5 16t-35.5 39q42 0 60 23t18 62v361q0 33 -8 52.5t-12 23.5h157q-5 -3 -14.5 -22.5t-9.5 -47.5v-377zM29 530q0 13 6 26t16 23.5t24 16.5t30 6t29.5 -6t23.5 -16.5t16 -23.5t6 -26q0 -29 -21.5 -50.5t-53.5 -21.5t-54 21.5
t-22 50.5z" />
    <glyph glyph-name="k" unicode="k" horiz-adv-x="452" 
d="M164 275q17 18 36 38.5t36 37.5q14 15 13.5 32.5t-6.5 24.5h170q-20 -8 -39.5 -23.5t-38.5 -37.5l-77 -84l127 -207q3 -8 11.5 -17t17.5 -17.5t16.5 -14.5t9.5 -7h-179q5 2 11 15t-6 35v-1l-83 133l-19 -18v-89q0 -33 7.5 -52t11.5 -23h-153q12 11 16.5 26.5t4.5 48.5
v448q0 33 -8 52.5t-12 23.5h152q-2 -2 -10.5 -22t-8.5 -54v-248z" />
    <glyph glyph-name="l" unicode="l" horiz-adv-x="210" 
d="M164 75q0 -33 7.5 -52t11.5 -23h-153q12 11 16.5 26.5t4.5 48.5v448q0 33 -8 52.5t-12 23.5h152q-2 -2 -10.5 -22t-8.5 -54v-448z" />
    <glyph glyph-name="m" unicode="m" horiz-adv-x="668" 
d="M484 0q4 4 12 23t8 52v189q0 32 -12.5 51.5t-32.5 19.5q-23 0 -40 -10.5t-31 -24.5q1 -8 1.5 -15t0.5 -15v-201q0 -29 9.5 -46.5t15.5 -22.5h-157q4 4 12 23t8 52v189q0 32 -12.5 51.5t-32.5 19.5q-23 0 -40 -10.5t-31 -24.5v-231q0 -29 9.5 -46.5t15.5 -22.5h-158
q4 4 12 23t8 52v257q0 33 -8 52.5t-12 23.5h128q2 -9 3 -21.5t1 -22.5q20 20 49.5 34.5t54.5 14.5q44 0 69.5 -16.5t38.5 -42.5q25 27 59 43t59 16q37 0 61.5 -12t38.5 -32.5t19.5 -46t5.5 -52.5v-201q0 -29 9.5 -46.5t15.5 -22.5h-157v0z" />
    <glyph glyph-name="n" unicode="n" horiz-adv-x="463" 
d="M278 0q4 4 12 23t8 52v189q0 32 -13.5 51.5t-39.5 19.5q-17 0 -39.5 -10t-43.5 -25v-231q0 -29 9.5 -46.5t15.5 -22.5h-158q4 4 12 23t8 52v257q0 33 -8 52.5t-12 23.5h128q2 -9 3 -21.5t1 -22.5q29 21 59 35t55 14q43 0 69.5 -12t41 -32.5t19.5 -46t5 -52.5v-201
q0 -29 9.5 -46.5t15.5 -22.5h-157v0z" />
    <glyph glyph-name="o" unicode="o" horiz-adv-x="453" 
d="M14 200q0 51 16.5 91t45 67t66.5 41.5t80 14.5t80 -14.5t66.5 -41.5t45 -67t16.5 -91q0 -48 -16.5 -86t-45 -65t-66.5 -41t-80 -14t-80 14t-66.5 41t-45 65t-16.5 86zM129 200q0 -61 25 -98t67 -37t67.5 37t25.5 98q0 64 -25.5 102t-67.5 38t-67 -38t-25 -102z" />
    <glyph glyph-name="p" unicode="p" horiz-adv-x="461" 
d="M431 210q0 -50 -15.5 -89.5t-42 -66.5t-61.5 -41.5t-75 -14.5q-36 0 -73 20v-104q0 -34 12.5 -53t16.5 -23h-163q6 8 13.5 25t7.5 51v418q0 33 -7 52.5t-11 23.5h127q1 -8 1 -18.5t2 -19.5q23 20 49.5 31.5t53.5 11.5q37 0 67 -14t52 -40.5t34 -64t12 -84.5zM319 205
q0 72 -24 100.5t-61 28.5q-20 0 -39 -11t-31 -26v-209q11 -5 27 -9.5t37 -4.5q16 0 32.5 8t29.5 24.5t21 41t8 57.5z" />
    <glyph glyph-name="q" unicode="q" horiz-adv-x="461" 
d="M280 -162q19 26 18 76v123q-20 -22 -47 -32t-54 -10q-37 0 -68 14t-54 40t-36 63.5t-13 85.5q0 46 15 85.5t40 68.5t58.5 45t71.5 16q26 0 50.5 -10.5t38.5 -26.5v16.5t1 15.5h126q-3 -4 -9.5 -23.5t-6.5 -52.5v-418q0 -34 8.5 -50.5t14.5 -25.5h-154zM138 202
q0 -36 7.5 -60.5t20 -39.5t28 -22t30.5 -7q20 0 40.5 12t33.5 26v193q-11 13 -27 21.5t-35 8.5q-41 0 -69 -33t-29 -99z" />
    <glyph glyph-name="r" unicode="r" horiz-adv-x="303" 
d="M255 413q7 0 19.5 -1.5t23.5 -4.5l9 -101q-17 17 -39.5 23t-34.5 6q-23 0 -39.5 -9.5t-30.5 -22.5v-228q0 -17 4 -30t9 -22.5t9.5 -15t6.5 -7.5h-169q27 25 27 75v257q0 16 -4 29.5t-9 23t-10 15.5t-7 8l137 -2l5 -40q19 25 43 36t50 11z" />
    <glyph glyph-name="s" unicode="s" horiz-adv-x="358" 
d="M218 109q0 15 -18.5 26t-43.5 22q-22 10 -44.5 21t-41 26.5t-30.5 35.5t-12 48q0 30 13 53.5t36 39.5t53.5 24.5t65.5 8.5t66 -8.5t51 -17.5v-91q-20 23 -52 32.5t-59 9.5q-26 0 -44 -8.5t-18 -27.5q0 -17 18.5 -27.5t44.5 -21.5q22 -9 44.5 -20.5t41 -26.5t30 -36
t11.5 -49q0 -30 -13.5 -54t-37 -40.5t-54.5 -25t-66 -8.5t-70 9t-55 18l-6 100q12 -14 28.5 -24t34 -16.5t34.5 -9.5t32 -3q28 0 44.5 10t16.5 31z" />
    <glyph glyph-name="t" unicode="t" horiz-adv-x="314" 
d="M279 337h-105v-193q0 -36 14 -53.5t37 -17.5q18 0 42.5 9t42.5 26v-74q-21 -15 -47 -27t-70 -12q-70 0 -101 39.5t-31 102.5v200h-63v71h63v78q12 1 27.5 6.5t31 12t30 14.5t24.5 16v-127h105v-71z" />
    <glyph glyph-name="u" unicode="u" horiz-adv-x="467" 
d="M163 144q0 -32 14 -51.5t46 -19.5q19 0 36.5 8t37.5 25v226q0 33 -8 52.5t-11 23.5h149q-2 -1 -10 -22t-8 -54v-257q0 -33 10.5 -52t13.5 -23h-131q-2 9 -3 21.5t-1 20.5q-27 -26 -56.5 -36.5t-55.5 -10.5q-42 0 -68.5 12t-41.5 32t-20.5 45.5t-5.5 52.5v195
q0 33 -7.5 52.5t-11.5 23.5h150q-2 -1 -10 -22t-8 -54v-188z" />
    <glyph glyph-name="v" unicode="v" horiz-adv-x="440" 
d="M54 329q-13 35 -28.5 55t-19.5 24h165l-4 -8t-4.5 -15.5t0 -22t7.5 -27.5l67 -173q17 44 34 86.5t33 86.5q6 15 7 28t-1 22.5t-5 15.5t-3 7h133q-5 -4 -21.5 -24.5t-30.5 -54.5q-24 -63 -41.5 -108t-32 -81t-28 -68.5t-28.5 -71.5h-68z" />
    <glyph glyph-name="w" unicode="w" horiz-adv-x="634" 
d="M317 203l-72 -203h-65q-21 52 -38 96.5t-32 83.5t-28.5 75.5t-28.5 73.5q-14 35 -29 55t-20 24l171 -1q-1 -3 -6 -14.5t-5 -26.5q0 -6 1.5 -15t3.5 -16l57 -171l83 244h52l82 -244l58 171q3 9 5 17t1 19t-5.5 22.5t-6.5 14.5h134q-4 -4 -19.5 -24t-27.5 -55l-121 -329
h-65z" />
    <glyph glyph-name="x" unicode="x" horiz-adv-x="441" 
d="M166 194q-17 25 -37.5 57.5t-48.5 75.5q-22 35 -40.5 56t-24.5 25h171q0 -1 -3 -6.5t-3.5 -14.5t2 -22t12.5 -28l35 -54l39 54q11 15 14.5 28t3 22t-2.5 14.5t-2 6.5h141q-7 -4 -31.5 -25t-50.5 -56l-73 -102l94 -145q23 -33 42.5 -53t27.5 -27h-180q1 1 4.5 6.5t5 14.5
t-1.5 22t-13 28q-3 4 -5.5 8.5t-7 11t-11.5 17.5t-18 28l-47 -65q-12 -15 -15 -28t-2.5 -22t3.5 -14.5t4 -6.5h-137q7 7 27.5 27t46.5 53z" />
    <glyph glyph-name="y" unicode="y" horiz-adv-x="436" 
d="M23 -67q10 -12 25.5 -17.5t26.5 -5.5q27 0 54 26.5t47 83.5q-5 9 -13.5 28t-23 54.5t-36.5 90.5t-52 136q-13 35 -28.5 55t-19.5 24h165l-4 -8t-4.5 -15.5t0 -22t7.5 -27.5l71 -174l63 174q6 15 7 28t-1 22.5t-5 15.5t-3 7h134q-5 -4 -21.5 -24.5t-30.5 -54.5
q-21 -56 -38 -101t-32 -82.5l-28 -70t-25 -63.5q-22 -54 -42 -87.5t-39.5 -52t-38.5 -25.5t-39 -7q-32 0 -54 19.5t-22 48.5v25z" />
    <glyph glyph-name="z" unicode="z" horiz-adv-x="348" 
d="M11 57l186 280h-76q-39 0 -61.5 -8.5t-48.5 -30.5l2 110h324v-46q-10 -18 -31.5 -52t-48.5 -74.5t-56.5 -84t-54.5 -80.5h83q38 0 63.5 7.5t44.5 39.5l-2 -118h-325z" />
    <glyph glyph-name="braceleft" unicode="{" horiz-adv-x="308" 
d="M176 -34q1 -23 8.5 -35.5t25.5 -12.5q22 0 40.5 5t40.5 18l-8 -86h-119q-18 0 -36 6t-33 18t-24 30t-9 42v201q-2 10 -13.5 23.5t-39.5 13.5v61q34 0 43.5 14t9.5 25v200q0 24 9.5 42t24.5 30t33 18t35 6h121l5 -80q-19 9 -38 14.5t-42 3.5q-14 -1 -24 -12t-10 -46v-173
q0 -9 -3.5 -19.5t-11.5 -21t-22 -18.5t-36 -11q43 -5 58 -24t15 -37v-195z" />
    <glyph glyph-name="bar" unicode="|" horiz-adv-x="176" 
d="M40 -146v750h94v-750h-94z" />
    <glyph glyph-name="braceright" unicode="}" horiz-adv-x="308" 
d="M124 161q0 9 3 18.5t11.5 18t22.5 15t36 9.5q-22 3 -36 11t-22.5 18.5t-11.5 21t-3 19.5v173q0 35 -10 46t-24 12q-23 2 -42 -3.5t-38 -14.5l5 80h121q17 0 35 -6t33 -18t24.5 -30t9.5 -42v-200q0 -5 2 -12t7.5 -13t16 -10t27.5 -4v-61q-28 0 -39.5 -13.5t-13.5 -23.5
v-201q0 -24 -9 -42t-24 -30t-33 -18t-36 -6h-119l-8 86q22 -13 40.5 -18t40.5 -5q18 0 25.5 12.5t8.5 35.5v195z" />
    <glyph glyph-name="asciitilde" unicode="~" horiz-adv-x="369" 
d="M260 217q-31 0 -56 8.5t-48 16.5q-14 6 -27.5 11t-24.5 5q-6 0 -13.5 -2.5t-15 -7.5t-13.5 -12.5t-7 -18.5h-52q5 57 35 83.5t70 26.5q33 0 62 -8.5t51 -17.5q13 -5 27 -9.5t22 -4.5q14 0 26.5 9.5t16.5 30.5h52q-5 -57 -34.5 -83.5t-70.5 -26.5z" />
    <glyph glyph-name="exclamdown" unicode="&#xa1;" horiz-adv-x="208" 
d="M40 -186h131l-2 94l-28 311h-69l-30 -311zM30 337q0 -14 6 -27.5t16 -24t24 -17t30 -6.5t30 6.5t24 17t16 24t6 27.5t-6 27t-16 23t-24 16t-30 6t-30 -6t-24 -16t-16 -23t-6 -27z" />
    <glyph glyph-name="cent" unicode="&#xa2;" horiz-adv-x="380" 
d="M129 202q0 -62 31 -99.5t82 -37.5q29 0 62.5 11t62.5 51l-2 -99q-8 -6 -22.5 -12t-34 -11t-42.5 -8t-47 -3q-43 0 -80.5 14t-65.5 40.5t-44.5 65t-16.5 88.5q0 51 17.5 90.5t47.5 67.5t69 42.5t81 14.5q17 0 36 -2t37 -6t34 -8.5t26 -8.5v-95q-22 26 -55 36.5t-63 10.5
q-51 0 -82 -38.5t-31 -103.5zM208 500h83l-52 -583h-83z" />
    <glyph glyph-name="sterling" unicode="&#xa3;" horiz-adv-x="435" 
d="M27 307h52q-13 24 -21.5 50t-8.5 64q0 37 14.5 68.5t40.5 54.5t61.5 36t77.5 13q57 0 95.5 -11t64.5 -25v-97v-16q-26 37 -61.5 54t-77.5 17q-48 0 -71 -27t-23 -65q0 -34 9 -63t20 -53h144v-71h-119q2 -9 3 -19t1 -18q0 -15 -3 -30.5t-12 -30.5t-25 -29.5t-42 -27.5h154
q39 0 68 15t43 35l-1 -13l-7 -118h-364l1 58q41 35 59.5 68.5t18.5 68.5q0 11 -2 20.5t-5 20.5h-84v71z" />
    <glyph glyph-name="yen" unicode="&#xa5;" horiz-adv-x="542" 
d="M357 287h93v-71h-123v-25h123v-71h-123v-24q0 -20 5 -37t12 -29.5t12.5 -20.5t7.5 -9h-185q1 0 6.5 7.5t11.5 20.5t11 30.5t5 37.5v24h-129v71h129v25h-129v71h97l-127 217v-1q-17 27 -34 50t-27 32h199q-2 -5 -7 -16t-5 -22q0 -16 10 -36l-1 1l104 -173l92 172h-1
q9 21 9 35q0 11 -6 24t-8 15h167q-3 -2 -10 -9.5t-16.5 -18.5t-20.5 -25t-20 -29v1z" />
    <glyph glyph-name="brokenbar" unicode="&#xa6;" horiz-adv-x="176" 
d="M40 -146v350h94v-350h-94zM134 255h-94v349h94v-349z" />
    <glyph glyph-name="section" unicode="&#xa7;" horiz-adv-x="415" 
d="M237 47q0 20 -23.5 36.5t-55.5 34.5q-27 14 -54.5 30t-50 35.5t-37 42.5t-14.5 52q0 37 26 61.5t61 38.5q-20 20 -31.5 41t-11.5 46q0 30 15 53.5t40.5 39.5t58 24.5t67.5 8.5q36 0 66.5 -8t50.5 -19l-10 -80q-17 23 -47.5 32.5t-56.5 9.5q-27 0 -48 -13.5t-21 -28.5
q0 -20 24.5 -35.5t57.5 -32.5q27 -14 55.5 -29t51 -34t37.5 -42t15 -52q0 -38 -26 -65t-64 -40q40 -36 40 -88q0 -31 -16 -55t-42 -40t-59.5 -24.5t-68.5 -8.5t-70 8t-53 18l1 100q23 -29 58.5 -45t65.5 -16q29 0 49 13.5t20 30.5zM298 241q0 9 -8.5 18t-22.5 18t-32 18.5
t-36 18.5l-45 21q-20 5 -34 -7t-13 -29q0 -8 9 -17.5t23 -19t31.5 -20t36.5 -20.5l43 -23h-2q21 -8 35.5 7.5t14.5 34.5zM156 335l-3 1l1 -1h2z" />
    <glyph glyph-name="dieresis" unicode="&#xa8;" horiz-adv-x="360" 
d="M31 520q0 29 19 47t47 18q27 0 46.5 -18t19.5 -47t-19.5 -46t-46.5 -17q-28 0 -47 17t-19 46zM189 520q0 29 19.5 47t47.5 18t47 -18t19 -47t-19 -46t-47 -17t-47.5 17t-19.5 46z" />
    <glyph glyph-name="copyright" unicode="&#xa9;" horiz-adv-x="643" 
d="M15 289q0 72 24.5 128.5t65.5 95.5t96 59.5t116 20.5q64 0 119.5 -20.5t96.5 -59.5t64.5 -95.5t23.5 -128.5q0 -68 -23.5 -122.5t-64.5 -93t-96.5 -59t-119.5 -20.5q-61 0 -116 20.5t-96 59t-65.5 93t-24.5 122.5zM87 289q0 -51 19 -93.5t50.5 -73t73.5 -47t89 -16.5
t89 16.5t73.5 47t50 73t18.5 93.5q0 54 -18.5 98t-50 74.5t-73.5 47t-89 16.5t-89 -16.5t-73.5 -47t-50.5 -74.5t-19 -98zM249 291q0 -57 25.5 -89t63.5 -32q11 0 24.5 2.5t27.5 8t27 14t23 21.5v-81q-20 -14 -48.5 -21t-60.5 -7q-35 0 -67.5 12.5t-57.5 36.5t-40 58t-15 77
q0 45 15.5 80.5t41 60t58.5 37t67 12.5q35 0 61 -8t42 -16v-72v-17q-19 25 -44.5 37t-54.5 12q-41 0 -64.5 -32.5t-23.5 -93.5z" />
    <glyph glyph-name="ordfeminine" unicode="&#xaa;" horiz-adv-x="307" 
d="M186 496q0 46 -44 46q-27 0 -55 -10t-43 -27v75q17 6 47.5 13.5t56.5 7.5q27 0 50.5 -6t40.5 -19t27 -34t10 -52v-141q0 -24 5 -40t8 -19h-100v11.5t-1 11.5q-11 -12 -30 -19.5t-47 -7.5q-40 0 -68.5 24.5t-28.5 63.5q0 28 15 49t39 34.5t55 21t63 9.5v8zM105 380
q0 -18 12 -26t27 -8q11 0 22.5 4.5t19.5 9.5v75q-14 -1 -28.5 -4.5t-26 -10.5t-19 -17t-7.5 -23z" />
    <glyph glyph-name="guillemotleft" unicode="&#xab;" horiz-adv-x="531" 
d="M280 454v-87l-136 -101l136 -101v-87l-255 163v51zM500 454v-87l-137 -101l137 -101v-87l-257 163v51z" />
    <glyph glyph-name="logicalnot" unicode="&#xac;" horiz-adv-x="463" 
d="M37 317h383v-199h-92v118h-291v81z" />
    <glyph glyph-name="uni00AD" unicode="&#xad;" horiz-adv-x="362" 
d="M36 258h286v-81h-286v81z" />
    <glyph glyph-name="registered" unicode="&#xae;" horiz-adv-x="643" 
d="M15 289q0 72 24.5 128.5t65.5 95.5t96 59.5t116 20.5q64 0 119.5 -20.5t96.5 -59.5t64.5 -95.5t23.5 -128.5q0 -68 -23.5 -122.5t-64.5 -93t-96.5 -59t-119.5 -20.5q-61 0 -116 20.5t-96 59t-65.5 93t-24.5 122.5zM87 289q0 -51 19 -93.5t50.5 -73t73.5 -47t89 -16.5
t89 16.5t73.5 47t50 73t18.5 93.5q0 54 -18.5 98t-50 74.5t-73.5 47t-89 16.5t-89 -16.5t-73.5 -47t-50.5 -74.5t-19 -98zM285 253v-81q0 -23 4.5 -39.5t11.5 -21.5h-117l4 14q1 1 3.5 12.5t2.5 34.5v243q0 24 -1 40.5t-3 21.5h99q31 0 57.5 -6.5t46 -20.5t30.5 -35.5
t11 -51.5q0 -31 -14.5 -58t-39.5 -39l83 -155h-118q6 7 4 19t-10 27l-52 96h-2zM285 416v-101q30 0 40.5 16t10.5 32q0 20 -10 36.5t-36 16.5h-5z" />
    <glyph glyph-name="degree" unicode="&#xb0;" horiz-adv-x="323" 
d="M12 454q0 35 11.5 62.5t32 46t47 28.5t56.5 10t56.5 -10t46.5 -28.5t31.5 -46t11.5 -62.5q0 -32 -11.5 -57.5t-31.5 -43t-46.5 -27t-56.5 -9.5t-56.5 9.5t-47 27t-32 43t-11.5 57.5zM100 454q0 -32 16 -55t42 -23q27 0 43 23t16 55q0 36 -16 59.5t-43 23.5q-26 0 -42 -24
t-16 -59z" />
    <glyph glyph-name="plusminus" unicode="&#xb1;" 
d="M286 499v-152h157v-80h-157v-152h-93v152h-156v80h156v152h93zM443 80v-80h-406v80h406z" />
    <glyph glyph-name="uni00B2" unicode="&#xb2;" horiz-adv-x="236" 
d="M214 511q0 -12 -4.5 -24t-16.5 -30.5t-34 -46.5t-57 -71h54q18 0 26 4.5t14 14.5l22 -4l-5 -65h-204l1 39q14 17 27.5 34.5t26.5 33.5q30 35 53 67t23 50q0 12 -10 22.5t-30 10.5q-18 0 -32 -8.5t-20 -19.5l-23 3v52q13 8 34.5 14t51.5 6q44 0 73.5 -23.5t29.5 -58.5z
" />
    <glyph glyph-name="uni00B3" unicode="&#xb3;" horiz-adv-x="237" 
d="M215 376q0 -20 -8.5 -37t-23.5 -29.5t-35 -19.5t-42 -7q-31 0 -52 6.5t-35 14.5v53l23 2q6 -11 20 -19t33 -8q20 0 32.5 12.5t12.5 29.5t-10.5 31t-42.5 16h-37v45h38q31 1 41.5 15t10.5 31q0 12 -10 22.5t-30 10.5q-19 0 -33 -8t-20 -20l-23 3v53q13 8 34.5 14t52.5 6
q44 0 74 -24t30 -59q0 -14 -10 -33.5t-32 -33.5q24 -12 33 -32t9 -35z" />
    <glyph glyph-name="acute" unicode="&#xb4;" horiz-adv-x="226" 
d="M292 575q0 -20 -15 -39.5t-36 -36.5t-43 -30.5t-36 -20.5h-92q13 11 29.5 29t31.5 37.5t25 38t10 31.5q35 0 63 -1q23 -1 43 -2.5t20 -5.5z" />
    <glyph glyph-name="mu" unicode="&#xb5;" horiz-adv-x="467" 
d="M50 335q0 34 -8 53.5t-12 23.5h151q-2 -1 -9.5 -22t-7.5 -55v-190q0 -32 13.5 -52t44.5 -20q23 0 39.5 8.5t36.5 25.5v228q0 34 -7.5 53.5t-11.5 23.5h151q-2 -1 -10 -22t-8 -55v-259q0 -17 4 -30t9.5 -23t10.5 -15.5t7 -7.5h-139l-5 36q-11 -12 -27.5 -21.5t-34.5 -14.5
t-37 -3.5t-35 12.5v-96q0 -34 7.5 -53.5t11.5 -23.5h-150q1 1 4 7.5t6 17t6 24t3 28.5z" />
    <glyph glyph-name="paragraph" unicode="&#xb6;" horiz-adv-x="481" 
d="M326 521v-662h-78v363h-21q-106 0 -161 45t-55 131q0 102 55 144.5t161 42.5h228v-726h-78v662h-51z" />
    <glyph glyph-name="periodcentered" unicode="&#xb7;" horiz-adv-x="188" 
d="M30 298q0 29 19 46.5t47 17.5q27 0 46.5 -17.5t19.5 -46.5t-19.5 -45.5t-46.5 -16.5q-28 0 -47 16.5t-19 45.5z" />
    <glyph glyph-name="cedilla" unicode="&#xb8;" horiz-adv-x="235" 
d="M23 -95q15 22 28 41q11 17 22.5 33.5t18.5 26.5h52l-13 -33q13 -1 28 -5t28.5 -13t22.5 -24.5t9 -39.5t-7.5 -43t-19.5 -33t-27.5 -24t-31.5 -17q-38 -16 -85 -20l-31 41q29 4 53 14q20 8 36.5 23t16.5 41q0 25 -16 32t-32 7q-6 0 -15 -1t-17 -3q-10 -2 -20 -3z" />
    <glyph glyph-name="uni00B9" unicode="&#xb9;" horiz-adv-x="235" 
d="M53 541l76 44h44q-5 -5 -9 -18t-4 -34v-192q0 -9 3.5 -18t8 -16.5t8.5 -12t5 -5.5h-95v211q0 11 -0.5 12.5t-5.5 1.5l-31 -6v33z" />
    <glyph glyph-name="ordmasculine" unicode="&#xba;" horiz-adv-x="346" 
d="M12 438q0 39 12.5 69t34.5 51t51 32t61 11t61 -11t50.5 -32t34 -51t12.5 -69q0 -36 -12.5 -64.5t-34 -48.5t-50.5 -30.5t-61 -10.5t-61 10.5t-51 30.5t-34.5 48.5t-12.5 64.5zM106 438q0 -44 17.5 -70.5t46.5 -26.5q30 0 47.5 26.5t17.5 70.5q0 49 -17.5 76.5t-47.5 27.5
q-29 0 -46.5 -27.5t-17.5 -76.5z" />
    <glyph glyph-name="guillemotright" unicode="&#xbb;" horiz-adv-x="531" 
d="M500 292v-51l-257 -163v87l137 101l-137 100v88zM280 292v-51l-255 -163v88l135 100l-135 100v88z" />
    <glyph glyph-name="onequarter" unicode="&#xbc;" horiz-adv-x="562" 
d="M97 0h-97q6 7 12 15t19.5 26.5t38 53t65.5 93.5l280 397h99zM34 541l74 44h45q-5 -5 -9 -18t-4 -34v-192q0 -9 3.5 -18t8 -16.5t8.5 -12t5 -5.5h-95v18v8q0 5 0.5 11t0.5 15v159q0 11 -0.5 12.5t-5.5 1.5l-31 -6v33zM534 78h-39v-27q0 -10 3.5 -19t8 -15.5t8 -11
t4.5 -5.5h-95l1 78h-119v37l129 180h73q-5 -5 -9 -18t-4 -33v-115q12 0 25.5 2t20.5 15zM369 127q12 0 26.5 -0.5t29.5 -0.5v76q-11 -17 -28.5 -39.5t-27.5 -35.5z" />
    <glyph glyph-name="onehalf" unicode="&#xbd;" horiz-adv-x="562" 
d="M97 0h-97q6 7 12 15t19.5 26.5t38 53t65.5 93.5l280 397h99zM533 221q0 -12 -4.5 -24t-16.5 -30.5t-34 -46.5t-57 -71h54q18 0 25.5 5t14.5 15l22 -5l-5 -64h-203l1 38l55 69q31 38 52.5 67.5t21.5 48.5q0 13 -10 23t-30 10q-18 0 -32 -8t-20 -19l-23 3v51
q13 8 34.5 14.5t51.5 6.5q45 0 74 -23.5t29 -59.5zM34 541l74 44h45q-5 -5 -9 -18t-4 -34v-192q0 -9 3.5 -18t8 -16.5t8.5 -12t5 -5.5h-95v18v8q0 5 0.5 11t0.5 15v159q0 11 -0.5 12.5t-5.5 1.5l-31 -6v33z" />
    <glyph glyph-name="threequarters" unicode="&#xbe;" horiz-adv-x="562" 
d="M117 0h-97q3 3 7.5 9.5t13.5 19t23 32t35 49.5l336 475h99zM534 78h-39v-27q0 -10 3.5 -19t8 -15.5t8 -11t4.5 -5.5h-95l1 78h-119v37l129 180h73q-5 -5 -9 -18t-4 -33v-115q12 0 25.5 2t20.5 15zM217 376q0 -20 -8.5 -37t-23.5 -29.5t-35 -19.5t-42 -7q-31 0 -52 6.5
t-35 14.5v53l24 2q5 -11 19 -19t33 -8q20 0 32.5 12.5t12.5 29.5t-10.5 31t-42.5 16h-37v45h38q31 1 41.5 15t10.5 31q0 12 -10 22.5t-30 10.5q-19 0 -33 -8t-20 -20l-23 3v53q14 8 35 14t52 6q44 0 74 -24t30 -59q0 -14 -10 -33.5t-32 -33.5q24 -12 33 -32t9 -35zM369 127
q12 0 26.5 -0.5t29.5 -0.5v76q-11 -17 -28.5 -39.5t-27.5 -35.5z" />
    <glyph glyph-name="questiondown" unicode="&#xbf;" horiz-adv-x="381" 
d="M294 207q0 -30 -7.5 -52.5t-19 -41t-26 -33.5t-29.5 -30q-20 -21 -36 -42.5t-16 -51.5q0 -25 23.5 -44.5t60.5 -19.5q18 0 38 6t38.5 16t32.5 22.5t18 25.5v-112q-33 -16 -79 -26t-87 -10q-77 0 -122 39.5t-45 108.5q0 25 8 45t21 37.5t29.5 32.5t33.5 30q14 12 27 22.5
t23.5 21.5t16.5 24.5t6 31.5v16h91v-16zM324 341q0 -14 -6 -27.5t-16 -24t-24 -17t-30 -6.5t-30 6.5t-24 17t-16 24t-6 27.5t6 27t16 23t24 16t30 6t30 -6t24 -16t16 -23t6 -27z" />
    <glyph glyph-name="Agrave" unicode="&#xc0;" horiz-adv-x="601" 
d="M381 180h-191l-30 -86q-4 -11 -5.5 -20.5t-1.5 -17.5q0 -22 10.5 -36t17.5 -20h-175q5 3 22.5 30t32.5 69l142 392q3 8 5.5 19.5t1.5 23.5t-7 23.5t-20 19.5h169q12 -24 25.5 -56.5t34 -86t51 -134.5t75.5 -201q17 -40 33.5 -68t21.5 -31h-192q5 5 11.5 19t6.5 34
q0 8 -1.5 18t-6.5 23zM217 257h134l-68 184zM133 753q0 4 16.5 5.5t36.5 2.5q23 1 53 1q0 -13 10 -31.5t25 -38t31.5 -37.5t30.5 -29h-73q-14 7 -36 20.5t-43 30.5t-36 36.5t-15 39.5z" />
    <glyph glyph-name="Aacute" unicode="&#xc1;" horiz-adv-x="601" 
d="M381 180h-191l-30 -86q-4 -11 -5.5 -20.5t-1.5 -17.5q0 -22 10.5 -36t17.5 -20h-175q5 3 22.5 30t32.5 69l142 392q3 8 5.5 19.5t1.5 23.5t-7 23.5t-20 19.5h169q12 -24 25.5 -56.5t34 -86t51 -134.5t75.5 -201q17 -40 33.5 -68t21.5 -31h-192q5 5 11.5 19t6.5 34
q0 8 -1.5 18t-6.5 23zM217 257h134l-68 184zM444 753q0 -20 -15 -39.5t-36 -36.5t-43 -30.5t-36 -20.5h-92q13 11 29.5 29t31.5 37.5t25 38t10 31.5q35 0 63 -1q23 -1 43 -2.5t20 -5.5z" />
    <glyph glyph-name="Acircumflex" unicode="&#xc2;" horiz-adv-x="601" 
d="M381 180h-191l-30 -86q-4 -11 -5.5 -20.5t-1.5 -17.5q0 -22 10.5 -36t17.5 -20h-175q5 3 22.5 30t32.5 69l142 392q3 8 5.5 19.5t1.5 23.5t-7 23.5t-20 19.5h169q12 -24 25.5 -56.5t34 -86t51 -134.5t75.5 -201q17 -40 33.5 -68t21.5 -31h-192q5 5 11.5 19t6.5 34
q0 8 -1.5 18t-6.5 23zM217 257h134l-68 184zM303 761l154 -155h-92q-14 11 -34 24.5t-44 33.5q-22 -19 -43.5 -33.5t-33.5 -24.5h-94q17 15 37 34.5t40 40t39 41.5t36 39h35z" />
    <glyph glyph-name="Atilde" unicode="&#xc3;" horiz-adv-x="601" 
d="M381 180h-191l-30 -86q-4 -11 -5.5 -20.5t-1.5 -17.5q0 -22 10.5 -36t17.5 -20h-175q5 3 22.5 30t32.5 69l142 392q3 8 5.5 19.5t1.5 23.5t-7 23.5t-20 19.5h169q12 -24 25.5 -56.5t34 -86t51 -134.5t75.5 -201q17 -40 33.5 -68t21.5 -31h-192q5 5 11.5 19t6.5 34
q0 8 -1.5 18t-6.5 23zM217 257h134l-68 184zM354 616q-20 0 -37.5 6.5t-32.5 14t-27.5 14t-21.5 6.5q-8 0 -20 -9t-16 -32h-62q5 57 35 83.5t69 26.5q20 0 35.5 -6t29 -13t25.5 -13t25 -6q11 0 24 9t17 29h62q-5 -56 -34.5 -83t-70.5 -27z" />
    <glyph glyph-name="Adieresis" unicode="&#xc4;" horiz-adv-x="601" 
d="M381 180h-191l-30 -86q-4 -11 -5.5 -20.5t-1.5 -17.5q0 -22 10.5 -36t17.5 -20h-175q5 3 22.5 30t32.5 69l142 392q3 8 5.5 19.5t1.5 23.5t-7 23.5t-20 19.5h169q12 -24 25.5 -56.5t34 -86t51 -134.5t75.5 -201q17 -40 33.5 -68t21.5 -31h-192q5 5 11.5 19t6.5 34
q0 8 -1.5 18t-6.5 23zM217 257h134l-68 184zM142 688q0 29 19 47t47 18q27 0 46.5 -18t19.5 -47t-19.5 -46t-46.5 -17q-28 0 -47 17t-19 46zM300 688q0 29 19.5 47t47.5 18t47 -18t19 -47t-19 -46t-47 -17t-47.5 17t-19.5 46z" />
    <glyph glyph-name="Aring" unicode="&#xc5;" horiz-adv-x="601" 
d="M381 180h-191l-30 -86q-4 -11 -5.5 -20.5t-1.5 -17.5q0 -22 10.5 -36t17.5 -20h-175q5 3 22.5 30t32.5 69l142 392q3 8 5.5 19.5t1.5 23.5t-7 23.5t-20 19.5h169q12 -24 25.5 -56.5t34 -86t51 -134.5t75.5 -201q17 -40 33.5 -68t21.5 -31h-192q5 5 11.5 19t6.5 34
q0 8 -1.5 18t-6.5 23zM217 257h134l-68 184zM188 686q0 33 26 57t63 24t62.5 -24t25.5 -57q0 -34 -25.5 -58t-62.5 -24t-63 24t-26 58zM252 686q0 -11 7 -20t18 -9t18 9t7 20t-7 20t-18 9t-18 -9t-7 -20z" />
    <glyph glyph-name="AE" unicode="&#xc6;" horiz-adv-x="737" 
d="M705 0h-367q1 0 6.5 7.5t12 20.5t12 30.5t5.5 37.5v104h-144q-15 -27 -28.5 -53.5t-27.5 -53.5q-14 -28 -14 -47q0 -17 7 -29t12 -17h-177q6 4 29.5 31t47.5 69q52 99 104.5 196t104.5 196q13 22 14 47.5t-25 45.5h429l5 -114l1 -16q-12 21 -41.5 35t-69.5 14h-113v-164
h115q29 0 54 10.5t32 18.5v-134q-1 1 -9 5.5t-20 9t-27 8.5t-30 4h-115v-181h113q39 0 68.5 16t42.5 36l-1 -15zM374 277v189l-103 -189h103z" />
    <glyph glyph-name="Ccedilla" unicode="&#xc7;" horiz-adv-x="512" 
d="M142 289q0 -48 15 -88.5t40.5 -69.5t58.5 -45t69 -16q21 0 44.5 4.5t46 13.5t43 24t35.5 36v-113q-33 -20 -81.5 -30.5t-102.5 -10.5q-59 0 -113 20.5t-95.5 59t-66.5 93t-25 122.5q0 72 26 128.5t69 95.5t97 59.5t111 20.5q62 0 105 -11t69 -25v-120q-24 39 -67 58.5
t-97 19.5q-38 0 -70.5 -16t-57.5 -45.5t-39 -71t-14 -93.5zM208 -95q15 22 28 41q11 17 22.5 33.5t18.5 26.5h52l-13 -33q13 -1 28 -5t28.5 -13t22.5 -24.5t9 -39.5t-7.5 -43t-19.5 -33t-27.5 -24t-31.5 -17q-38 -16 -85 -20l-31 41q29 4 53 14q20 8 36.5 23t16.5 41
q0 25 -16 32t-32 7q-6 0 -15 -1t-17 -3q-10 -2 -20 -3z" />
    <glyph glyph-name="Egrave" unicode="&#xc8;" horiz-adv-x="405" 
d="M381 0h-352h-15q1 0 6.5 7.5t12 20.5t12 30.5t5.5 37.5v393q0 21 -5 38t-11.5 30t-12 20.5t-6.5 7.5h14h353l5 -114l1 -16q-12 21 -41.5 35t-69.5 14h-113v-164h115q29 0 54 10.5t32 18.5v-134q-1 1 -9 5.5t-20 9t-27 8.5t-30 4h-115v-181h113q39 0 68.5 16t42.5 36
l-1 -15zM96 753q0 4 16.5 5.5t36.5 2.5q23 1 53 1q0 -13 10 -31.5t25 -38t31.5 -37.5t30.5 -29h-73q-14 7 -36 20.5t-43 30.5t-36 36.5t-15 39.5z" />
    <glyph glyph-name="Eacute" unicode="&#xc9;" horiz-adv-x="405" 
d="M381 0h-352h-15q1 0 6.5 7.5t12 20.5t12 30.5t5.5 37.5v393q0 21 -5 38t-11.5 30t-12 20.5t-6.5 7.5h14h353l5 -114l1 -16q-12 21 -41.5 35t-69.5 14h-113v-164h115q29 0 54 10.5t32 18.5v-134q-1 1 -9 5.5t-20 9t-27 8.5t-30 4h-115v-181h113q39 0 68.5 16t42.5 36
l-1 -15zM356 753q0 -20 -15 -39.5t-36 -36.5t-43 -30.5t-36 -20.5h-92q13 11 29.5 29t31.5 37.5t25 38t10 31.5q35 0 63 -1q23 -1 43 -2.5t20 -5.5z" />
    <glyph glyph-name="Ecircumflex" unicode="&#xca;" horiz-adv-x="405" 
d="M381 0h-352h-15q1 0 6.5 7.5t12 20.5t12 30.5t5.5 37.5v393q0 21 -5 38t-11.5 30t-12 20.5t-6.5 7.5h14h353l5 -114l1 -16q-12 21 -41.5 35t-69.5 14h-113v-164h115q29 0 54 10.5t32 18.5v-134q-1 1 -9 5.5t-20 9t-27 8.5t-30 4h-115v-181h113q39 0 68.5 16t42.5 36
l-1 -15zM216 771l154 -155h-92q-14 11 -34 24.5t-44 33.5q-22 -19 -43.5 -33.5t-33.5 -24.5h-94q17 15 37 34.5t40 40t39 41.5t36 39h35z" />
    <glyph glyph-name="Edieresis" unicode="&#xcb;" horiz-adv-x="405" 
d="M381 0h-352h-15q1 0 6.5 7.5t12 20.5t12 30.5t5.5 37.5v393q0 21 -5 38t-11.5 30t-12 20.5t-6.5 7.5h14h353l5 -114l1 -16q-12 21 -41.5 35t-69.5 14h-113v-164h115q29 0 54 10.5t32 18.5v-134q-1 1 -9 5.5t-20 9t-27 8.5t-30 4h-115v-181h113q39 0 68.5 16t42.5 36
l-1 -15zM65 688q0 29 19 47t47 18q27 0 46.5 -18t19.5 -47t-19.5 -46t-46.5 -17q-28 0 -47 17t-19 46zM223 688q0 29 19.5 47t47.5 18t47 -18t19 -47t-19 -46t-47 -17t-47.5 17t-19.5 46z" />
    <glyph glyph-name="Igrave" unicode="&#xcc;" horiz-adv-x="209" 
d="M163 96q0 -20 4.5 -36.5t10.5 -29.5t11.5 -20.5t7.5 -9.5h-169h-13q1 0 6.5 7.5t11.5 20.5t11 30.5t5 37.5v393q0 21 -4 38t-9.5 29.5t-10.5 20t-6 8.5h181q-2 -1 -8 -8t-12.5 -20t-11.5 -30t-5 -38v-393zM-32 743q0 4 16.5 5.5t36.5 2.5q23 1 53 1q0 -13 10 -31.5
t25 -38t31.5 -37.5t30.5 -29h-73q-14 7 -36 20.5t-43 30.5t-36 36.5t-15 39.5z" />
    <glyph glyph-name="Iacute" unicode="&#xcd;" horiz-adv-x="209" 
d="M163 96q0 -20 4.5 -36.5t10.5 -29.5t11.5 -20.5t7.5 -9.5h-169h-13q1 0 6.5 7.5t11.5 20.5t11 30.5t5 37.5v393q0 21 -4 38t-9.5 29.5t-10.5 20t-6 8.5h181q-2 -1 -8 -8t-12.5 -20t-11.5 -30t-5 -38v-393zM256 743q0 -20 -15 -39.5t-36 -36.5t-43 -30.5t-36 -20.5h-92
q13 11 29.5 29t31.5 37.5t25 38t10 31.5q35 0 63 -1q23 -1 43 -2.5t20 -5.5z" />
    <glyph glyph-name="Icircumflex" unicode="&#xce;" horiz-adv-x="209" 
d="M163 96q0 -20 4.5 -36.5t10.5 -29.5t11.5 -20.5t7.5 -9.5h-169h-13q1 0 6.5 7.5t11.5 20.5t11 30.5t5 37.5v393q0 21 -4 38t-9.5 29.5t-10.5 20t-6 8.5h181q-2 -1 -8 -8t-12.5 -20t-11.5 -30t-5 -38v-393zM119 771l154 -155h-92q-14 11 -34 24.5t-44 33.5
q-22 -19 -43.5 -33.5t-33.5 -24.5h-94q17 15 37 34.5t40 40t39 41.5t36 39h35z" />
    <glyph glyph-name="Idieresis" unicode="&#xcf;" horiz-adv-x="209" 
d="M163 96q0 -20 4.5 -36.5t10.5 -29.5t11.5 -20.5t7.5 -9.5h-169h-13q1 0 6.5 7.5t11.5 20.5t11 30.5t5 37.5v393q0 21 -4 38t-9.5 29.5t-10.5 20t-6 8.5h181q-2 -1 -8 -8t-12.5 -20t-11.5 -30t-5 -38v-393zM-42 688q0 29 19 47t47 18q27 0 46.5 -18t19.5 -47t-19.5 -46
t-46.5 -17q-28 0 -47 17t-19 46zM116 688q0 29 19.5 47t47.5 18t47 -18t19 -47t-19 -46t-47 -17t-47.5 17t-19.5 46z" />
    <glyph glyph-name="Eth" unicode="&#xd0;" horiz-adv-x="578" 
d="M8 337h75v152q0 21 -4.5 38t-9.5 29.5t-10.5 20t-6.5 8.5h219q60 0 113 -19t92.5 -56.5t62 -93t22.5 -127.5q0 -68 -22.5 -121.5t-62 -91t-92.5 -57t-113 -19.5h-226q17 16 28 38.5t10 57.5v159h-75v82zM197 504v-167h98v-82h-98v-177h75q36 0 66 15t51.5 42.5t33.5 66.5
t12 87q0 103 -45.5 159t-117.5 56h-75z" />
    <glyph glyph-name="Ntilde" unicode="&#xd1;" horiz-adv-x="564" 
d="M513 0h-63l-302 382v-286q0 -20 4 -37t9 -29.5t9.5 -20.5t6.5 -9h-160l8 10q2 1 12.5 23t10.5 63v393q0 21 -5.5 38t-13 29.5t-14 20t-7.5 8.5h118q17 -21 44 -53t57 -69t61.5 -75.5t58 -72t45 -59t24.5 -36.5v269q0 21 -4.5 38t-9.5 29.5t-10.5 20t-6.5 8.5h165
q-2 -1 -8 -8t-12 -20t-11 -30t-5 -38zM335 616q-20 0 -37.5 6.5t-32.5 14t-27.5 14t-21.5 6.5q-8 0 -20 -9t-16 -32h-62q5 57 35 83.5t69 26.5q20 0 35.5 -6t29 -13t25.5 -13t25 -6q11 0 24 9t17 29h62q-5 -56 -34.5 -83t-70.5 -27z" />
    <glyph glyph-name="Ograve" unicode="&#xd2;" horiz-adv-x="610" 
d="M11 289q0 72 23 128.5t63 95.5t92 59.5t111 20.5q60 0 113 -20.5t92.5 -59.5t62 -95.5t22.5 -128.5q0 -68 -22.5 -122.5t-62 -93t-92.5 -59t-113 -20.5q-59 0 -111 20.5t-92 59t-63 93t-23 122.5zM137 289q0 -48 12.5 -88t34 -68.5t51.5 -44t66 -15.5t66 15.5t51.5 44
t33 68.5t11.5 88q0 51 -11.5 92.5t-33 70.5t-51.5 44.5t-66 15.5t-66 -15.5t-51.5 -44.5t-34 -70.5t-12.5 -92.5zM158 743q0 4 16.5 5.5t36.5 2.5q23 1 53 1q0 -13 10 -31.5t25 -38t31.5 -37.5t30.5 -29h-73q-14 7 -36 20.5t-43 30.5t-36 36.5t-15 39.5z" />
    <glyph glyph-name="Oacute" unicode="&#xd3;" horiz-adv-x="610" 
d="M11 289q0 72 23 128.5t63 95.5t92 59.5t111 20.5q60 0 113 -20.5t92.5 -59.5t62 -95.5t22.5 -128.5q0 -68 -22.5 -122.5t-62 -93t-92.5 -59t-113 -20.5q-59 0 -111 20.5t-92 59t-63 93t-23 122.5zM137 289q0 -48 12.5 -88t34 -68.5t51.5 -44t66 -15.5t66 15.5t51.5 44
t33 68.5t11.5 88q0 51 -11.5 92.5t-33 70.5t-51.5 44.5t-66 15.5t-66 -15.5t-51.5 -44.5t-34 -70.5t-12.5 -92.5zM458 743q0 -20 -15 -39.5t-36 -36.5t-43 -30.5t-36 -20.5h-92q13 11 29.5 29t31.5 37.5t25 38t10 31.5q35 0 63 -1q23 -1 43 -2.5t20 -5.5z" />
    <glyph glyph-name="Ocircumflex" unicode="&#xd4;" horiz-adv-x="610" 
d="M11 289q0 72 23 128.5t63 95.5t92 59.5t111 20.5q60 0 113 -20.5t92.5 -59.5t62 -95.5t22.5 -128.5q0 -68 -22.5 -122.5t-62 -93t-92.5 -59t-113 -20.5q-59 0 -111 20.5t-92 59t-63 93t-23 122.5zM137 289q0 -48 12.5 -88t34 -68.5t51.5 -44t66 -15.5t66 15.5t51.5 44
t33 68.5t11.5 88q0 51 -11.5 92.5t-33 70.5t-51.5 44.5t-66 15.5t-66 -15.5t-51.5 -44.5t-34 -70.5t-12.5 -92.5zM319 761l154 -155h-92q-14 11 -34 24.5t-44 33.5q-22 -19 -43.5 -33.5t-33.5 -24.5h-94q17 15 37 34.5t40 40t39 41.5t36 39h35z" />
    <glyph glyph-name="Otilde" unicode="&#xd5;" horiz-adv-x="610" 
d="M11 289q0 72 23 128.5t63 95.5t92 59.5t111 20.5q60 0 113 -20.5t92.5 -59.5t62 -95.5t22.5 -128.5q0 -68 -22.5 -122.5t-62 -93t-92.5 -59t-113 -20.5q-59 0 -111 20.5t-92 59t-63 93t-23 122.5zM137 289q0 -48 12.5 -88t34 -68.5t51.5 -44t66 -15.5t66 15.5t51.5 44
t33 68.5t11.5 88q0 51 -11.5 92.5t-33 70.5t-51.5 44.5t-66 15.5t-66 -15.5t-51.5 -44.5t-34 -70.5t-12.5 -92.5zM359 616q-20 0 -37.5 6.5t-32.5 14t-27.5 14t-21.5 6.5q-8 0 -20 -9t-16 -32h-62q5 57 35 83.5t69 26.5q20 0 35.5 -6t29 -13t25.5 -13t25 -6q11 0 24 9t17 29
h62q-5 -56 -34.5 -83t-70.5 -27z" />
    <glyph glyph-name="Odieresis" unicode="&#xd6;" horiz-adv-x="610" 
d="M11 289q0 72 23 128.5t63 95.5t92 59.5t111 20.5q60 0 113 -20.5t92.5 -59.5t62 -95.5t22.5 -128.5q0 -68 -22.5 -122.5t-62 -93t-92.5 -59t-113 -20.5q-59 0 -111 20.5t-92 59t-63 93t-23 122.5zM137 289q0 -48 12.5 -88t34 -68.5t51.5 -44t66 -15.5t66 15.5t51.5 44
t33 68.5t11.5 88q0 51 -11.5 92.5t-33 70.5t-51.5 44.5t-66 15.5t-66 -15.5t-51.5 -44.5t-34 -70.5t-12.5 -92.5zM157 688q0 29 19 47t47 18q27 0 46.5 -18t19.5 -47t-19.5 -46t-46.5 -17q-28 0 -47 17t-19 46zM315 688q0 29 19.5 47t47.5 18t47 -18t19 -47t-19 -46t-47 -17
t-47.5 17t-19.5 46z" />
    <glyph glyph-name="multiply" unicode="&#xd7;" 
d="M414 374l-112 -108l111 -107l-63 -61l-110 108l-110 -108l-63 61l111 107l-112 108l64 60l110 -108l110 108z" />
    <glyph glyph-name="Oslash" unicode="&#xd8;" horiz-adv-x="610" 
d="M4 0l497 594h98l-497 -594h-98zM11 289q0 72 23 128.5t63 95.5t92 59.5t111 20.5q60 0 113 -20.5t92.5 -59.5t62 -95.5t22.5 -128.5q0 -68 -22.5 -122.5t-62 -93t-92.5 -59t-113 -20.5q-59 0 -111 20.5t-92 59t-63 93t-23 122.5zM137 289q0 -48 12.5 -88t34 -68.5
t51.5 -44t66 -15.5t66 15.5t51.5 44t33 68.5t11.5 88q0 51 -11.5 92.5t-33 70.5t-51.5 44.5t-66 15.5t-66 -15.5t-51.5 -44.5t-34 -70.5t-12.5 -92.5z" />
    <glyph glyph-name="Ugrave" unicode="&#xd9;" horiz-adv-x="562" 
d="M165 198q0 -57 26.5 -91t80.5 -34q29 0 64 12t59 29v375q0 21 -4.5 38t-9.5 29.5t-10 20t-6 8.5h173q-1 -1 -5.5 -8t-10 -19.5t-9.5 -30t-4 -38.5v-393q0 -20 4.5 -37t10.5 -29.5t11 -20.5t7 -9h-137l-8 46q-16 -13 -35.5 -22.5t-39.5 -16t-39 -10t-34 -3.5q-56 0 -94 15
t-61 42t-33 63.5t-10 80.5v294q0 21 -4 38t-9.5 29.5t-10.5 20t-6 8.5h181q-2 -1 -8 -8t-12.5 -20t-11.5 -30t-5 -38v-291zM165 743q0 4 16.5 5.5t36.5 2.5q23 1 53 1q0 -13 10 -31.5t25 -38t31.5 -37.5t30.5 -29h-73q-14 7 -36 20.5t-43 30.5t-36 36.5t-15 39.5z" />
    <glyph glyph-name="Uacute" unicode="&#xda;" horiz-adv-x="562" 
d="M165 198q0 -57 26.5 -91t80.5 -34q29 0 64 12t59 29v375q0 21 -4.5 38t-9.5 29.5t-10 20t-6 8.5h173q-1 -1 -5.5 -8t-10 -19.5t-9.5 -30t-4 -38.5v-393q0 -20 4.5 -37t10.5 -29.5t11 -20.5t7 -9h-137l-8 46q-16 -13 -35.5 -22.5t-39.5 -16t-39 -10t-34 -3.5q-56 0 -94 15
t-61 42t-33 63.5t-10 80.5v294q0 21 -4 38t-9.5 29.5t-10.5 20t-6 8.5h181q-2 -1 -8 -8t-12.5 -20t-11.5 -30t-5 -38v-291zM435 743q0 -20 -15 -39.5t-36 -36.5t-43 -30.5t-36 -20.5h-92q13 11 29.5 29t31.5 37.5t25 38t10 31.5q35 0 63 -1q23 -1 43 -2.5t20 -5.5z" />
    <glyph glyph-name="Ucircumflex" unicode="&#xdb;" horiz-adv-x="562" 
d="M165 198q0 -57 26.5 -91t80.5 -34q29 0 64 12t59 29v375q0 21 -4.5 38t-9.5 29.5t-10 20t-6 8.5h173q-1 -1 -5.5 -8t-10 -19.5t-9.5 -30t-4 -38.5v-393q0 -20 4.5 -37t10.5 -29.5t11 -20.5t7 -9h-137l-8 46q-16 -13 -35.5 -22.5t-39.5 -16t-39 -10t-34 -3.5q-56 0 -94 15
t-61 42t-33 63.5t-10 80.5v294q0 21 -4 38t-9.5 29.5t-10.5 20t-6 8.5h181q-2 -1 -8 -8t-12.5 -20t-11.5 -30t-5 -38v-291zM294 771l154 -155h-92q-14 11 -34 24.5t-44 33.5q-22 -19 -43.5 -33.5t-33.5 -24.5h-94q17 15 37 34.5t40 40t39 41.5t36 39h35z" />
    <glyph glyph-name="Udieresis" unicode="&#xdc;" horiz-adv-x="562" 
d="M165 198q0 -57 26.5 -91t80.5 -34q29 0 64 12t59 29v375q0 21 -4.5 38t-9.5 29.5t-10 20t-6 8.5h173q-1 -1 -5.5 -8t-10 -19.5t-9.5 -30t-4 -38.5v-393q0 -20 4.5 -37t10.5 -29.5t11 -20.5t7 -9h-137l-8 46q-16 -13 -35.5 -22.5t-39.5 -16t-39 -10t-34 -3.5q-56 0 -94 15
t-61 42t-33 63.5t-10 80.5v294q0 21 -4 38t-9.5 29.5t-10.5 20t-6 8.5h181q-2 -1 -8 -8t-12.5 -20t-11.5 -30t-5 -38v-291zM133 688q0 29 19 47t47 18q27 0 46.5 -18t19.5 -47t-19.5 -46t-46.5 -17q-28 0 -47 17t-19 46zM291 688q0 29 19.5 47t47.5 18t47 -18t19 -47
t-19 -46t-47 -17t-47.5 17t-19.5 46z" />
    <glyph glyph-name="Yacute" unicode="&#xdd;" horiz-adv-x="542" 
d="M327 233v-137q0 -20 5 -37t12 -29.5t12.5 -20.5t7.5 -9h-185q1 0 6.5 7.5t11.5 20.5t11 30.5t5 37.5v136l-159 272v-1q-17 27 -34 50t-27 32h199q-2 -5 -7 -16t-5 -22q0 -16 10 -36l-1 1l104 -173l92 172h-1q9 21 9 35q0 11 -6 24t-8 15h167q-3 -2 -10 -9.5t-16.5 -18.5
t-20.5 -25t-20 -29v1zM423 733q0 -20 -15 -39.5t-36 -36.5t-43 -30.5t-36 -20.5h-92q13 11 29.5 29t31.5 37.5t25 38t10 31.5q35 0 63 -1q23 -1 43 -2.5t20 -5.5z" />
    <glyph glyph-name="Thorn" unicode="&#xde;" horiz-adv-x="446" 
d="M185 489q53 0 98 -10t78 -32.5t51.5 -58t18.5 -86.5q0 -43 -18.5 -75.5t-51.5 -55t-78 -34t-98 -11.5h-18v-30q0 -20 4.5 -36.5t10.5 -29.5t11.5 -20.5t7.5 -9.5h-182q1 0 6.5 7.5t11.5 20.5t11 30.5t5 37.5v393q0 21 -4 38t-9.5 29.5t-10.5 20t-6 8.5h180q-2 -2 -8 -9.5
t-12 -20t-11 -29.5t-5 -37h18zM167 407v-202h19q57 0 87.5 26t30.5 71q0 58 -30.5 81.5t-87.5 23.5h-19z" />
    <glyph glyph-name="germandbls" unicode="&#xdf;" horiz-adv-x="526" 
d="M396 109q0 15 -17.5 28t-40.5 28q-19 12 -39 25.5t-36 30.5t-26.5 38.5t-10.5 48.5q0 38 16.5 64t36.5 47l22 28t11 30q0 23 -13.5 38t-41.5 15q-36 0 -54.5 -24t-18.5 -66v-365q0 -33 8 -52t12 -23h-150q11 14 14.5 32.5t3.5 42.5v262h-64v71h64v34q0 35 12.5 65
t35.5 51.5t54.5 34t69.5 12.5q48 0 82.5 -11.5t56 -29.5t31.5 -40.5t10 -44.5q0 -19 -5 -34.5t-13 -28.5t-18 -24t-20 -21q-13 -12 -21.5 -23.5t-8.5 -25.5q0 -16 17 -29.5t40 -27.5q19 -12 39 -25t36.5 -29.5t27 -38.5t10.5 -50q0 -30 -12.5 -54t-33.5 -40.5t-48.5 -25
t-57.5 -8.5q-35 0 -61.5 8.5t-46.5 17.5l-5 86q58 -38 99 -38q54 0 54 41z" />
    <glyph glyph-name="agrave" unicode="&#xe0;" horiz-adv-x="410" 
d="M247 274q0 65 -64 65q-72 0 -128 -47v94q11 4 27.5 9t35 9t38 7t36.5 3q35 0 66 -8t53.5 -25.5t35.5 -45.5t13 -69v-191q0 -17 4 -30t9 -22.5t9.5 -15t6.5 -7.5h-136q-1 4 -1.5 12.5t-1.5 13.5q-9 -7 -22.5 -13t-29 -10t-31.5 -6t-28 -2q-56 0 -90 31t-34 77q0 42 20 71
t52.5 48t74 28.5t85.5 11.5v12zM128 119q0 -28 17.5 -39.5t40.5 -11.5q17 0 33.5 6.5t27.5 16.5v105q-20 -2 -41.5 -7t-38.5 -14.5t-28 -23t-11 -32.5zM58 575q0 4 16.5 5.5t36.5 2.5q23 1 53 1q0 -13 10 -31.5t25 -38t31.5 -37.5t30.5 -29h-73q-14 7 -36 20.5t-43 30.5
t-36 36.5t-15 39.5z" />
    <glyph glyph-name="aacute" unicode="&#xe1;" horiz-adv-x="410" 
d="M247 274q0 65 -64 65q-72 0 -128 -47v94q11 4 27.5 9t35 9t38 7t36.5 3q35 0 66 -8t53.5 -25.5t35.5 -45.5t13 -69v-191q0 -17 4 -30t9 -22.5t9.5 -15t6.5 -7.5h-136q-1 4 -1.5 12.5t-1.5 13.5q-9 -7 -22.5 -13t-29 -10t-31.5 -6t-28 -2q-56 0 -90 31t-34 77q0 42 20 71
t52.5 48t74 28.5t85.5 11.5v12zM128 119q0 -28 17.5 -39.5t40.5 -11.5q17 0 33.5 6.5t27.5 16.5v105q-20 -2 -41.5 -7t-38.5 -14.5t-28 -23t-11 -32.5zM328 575q0 -20 -15 -39.5t-36 -36.5t-43 -30.5t-36 -20.5h-92q13 11 29.5 29t31.5 37.5t25 38t10 31.5q35 0 63 -1
q23 -1 43 -2.5t20 -5.5z" />
    <glyph glyph-name="acircumflex" unicode="&#xe2;" horiz-adv-x="410" 
d="M247 274q0 65 -64 65q-72 0 -128 -47v94q11 4 27.5 9t35 9t38 7t36.5 3q35 0 66 -8t53.5 -25.5t35.5 -45.5t13 -69v-191q0 -17 4 -30t9 -22.5t9.5 -15t6.5 -7.5h-136q-1 4 -1.5 12.5t-1.5 13.5q-9 -7 -22.5 -13t-29 -10t-31.5 -6t-28 -2q-56 0 -90 31t-34 77q0 42 20 71
t52.5 48t74 28.5t85.5 11.5v12zM128 119q0 -28 17.5 -39.5t40.5 -11.5q17 0 33.5 6.5t27.5 16.5v105q-20 -2 -41.5 -7t-38.5 -14.5t-28 -23t-11 -32.5zM208 603l154 -155h-92q-14 11 -34 24.5t-44 33.5q-22 -19 -43.5 -33.5t-33.5 -24.5h-94q17 15 37 34.5t40 40t39 41.5
t36 39h35z" />
    <glyph glyph-name="atilde" unicode="&#xe3;" horiz-adv-x="410" 
d="M247 274q0 65 -64 65q-72 0 -128 -47v94q11 4 27.5 9t35 9t38 7t36.5 3q35 0 66 -8t53.5 -25.5t35.5 -45.5t13 -69v-191q0 -17 4 -30t9 -22.5t9.5 -15t6.5 -7.5h-136q-1 4 -1.5 12.5t-1.5 13.5q-9 -7 -22.5 -13t-29 -10t-31.5 -6t-28 -2q-56 0 -90 31t-34 77q0 42 20 71
t52.5 48t74 28.5t85.5 11.5v12zM128 119q0 -28 17.5 -39.5t40.5 -11.5q17 0 33.5 6.5t27.5 16.5v105q-20 -2 -41.5 -7t-38.5 -14.5t-28 -23t-11 -32.5zM259 458q-20 0 -37.5 6.5t-32.5 14t-27.5 14t-21.5 6.5q-8 0 -20 -9t-16 -32h-62q5 57 35 83.5t69 26.5q20 0 35.5 -6
t29 -13t25.5 -13t25 -6q11 0 24 9t17 29h62q-5 -56 -34.5 -83t-70.5 -27z" />
    <glyph glyph-name="adieresis" unicode="&#xe4;" horiz-adv-x="410" 
d="M247 274q0 65 -64 65q-72 0 -128 -47v94q11 4 27.5 9t35 9t38 7t36.5 3q35 0 66 -8t53.5 -25.5t35.5 -45.5t13 -69v-191q0 -17 4 -30t9 -22.5t9.5 -15t6.5 -7.5h-136q-1 4 -1.5 12.5t-1.5 13.5q-9 -7 -22.5 -13t-29 -10t-31.5 -6t-28 -2q-56 0 -90 31t-34 77q0 42 20 71
t52.5 48t74 28.5t85.5 11.5v12zM128 119q0 -28 17.5 -39.5t40.5 -11.5q17 0 33.5 6.5t27.5 16.5v105q-20 -2 -41.5 -7t-38.5 -14.5t-28 -23t-11 -32.5zM58 520q0 29 19 47t47 18q27 0 46.5 -18t19.5 -47t-19.5 -46t-46.5 -17q-28 0 -47 17t-19 46zM216 520q0 29 19.5 47
t47.5 18t47 -18t19 -47t-19 -46t-47 -17t-47.5 17t-19.5 46z" />
    <glyph glyph-name="aring" unicode="&#xe5;" horiz-adv-x="410" 
d="M247 274q0 65 -64 65q-72 0 -128 -47v94q11 4 27.5 9t35 9t38 7t36.5 3q35 0 66 -8t53.5 -25.5t35.5 -45.5t13 -69v-191q0 -17 4 -30t9 -22.5t9.5 -15t6.5 -7.5h-136q-1 4 -1.5 12.5t-1.5 13.5q-9 -7 -22.5 -13t-29 -10t-31.5 -6t-28 -2q-56 0 -90 31t-34 77q0 42 20 71
t52.5 48t74 28.5t85.5 11.5v12zM128 119q0 -28 17.5 -39.5t40.5 -11.5q17 0 33.5 6.5t27.5 16.5v105q-20 -2 -41.5 -7t-38.5 -14.5t-28 -23t-11 -32.5zM114 518q0 33 26 57t63 24t62.5 -24t25.5 -57q0 -34 -25.5 -58t-62.5 -24t-63 24t-26 58zM178 518q0 -11 7 -20t18 -9
t18 9t7 20t-7 20t-18 9t-18 -9t-7 -20z" />
    <glyph glyph-name="ae" unicode="&#xe6;" horiz-adv-x="665" 
d="M452 413q94 0 143 -52t50 -143v-35h-279q1 -23 10.5 -44t24.5 -37.5t34.5 -26.5t40.5 -10q14 0 32 3t36 10.5t35 19.5t29 30l-4 -100q-16 -11 -54 -22.5t-86 -11.5q-49 0 -91 15t-72 47q-22 -23 -46 -35t-45.5 -18t-40 -7t-30.5 -1q-56 0 -90 31t-34 77q0 42 20 71
t52.5 48t74 28.5t85.5 11.5v12q0 65 -64 65q-72 0 -128 -47v94q11 4 27.5 9t35 9t38 7t36.5 3q41 0 75 -10.5t57 -34.5q26 21 58 32.5t70 11.5zM128 119q0 -28 17.5 -39.5t40.5 -11.5q17 0 33.5 6.5t27.5 16.5v105q-20 -2 -41.5 -7t-38.5 -14.5t-28 -23t-11 -32.5zM454 339
q-35 0 -58.5 -24.5t-28.5 -62.5h164q-5 38 -22.5 62.5t-54.5 24.5z" />
    <glyph glyph-name="ccedilla" unicode="&#xe7;" horiz-adv-x="380" 
d="M129 200q0 -61 30.5 -98t81.5 -37q28 0 59 13t57 48l-2 -98q-15 -11 -52 -22.5t-85 -11.5q-42 0 -79.5 13.5t-65.5 40t-44 64.5t-16 88t17.5 90t46.5 67.5t67.5 42t80.5 14.5q17 0 35 -2.5t35 -6t31.5 -8.5t24.5 -9v-94q-40 46 -110 46q-51 0 -81.5 -38t-30.5 -102z
M141 -95q15 22 28 41q11 17 22.5 33.5t18.5 26.5h52l-13 -33q13 -1 28 -5t28.5 -13t22.5 -24.5t9 -39.5t-7.5 -43t-19.5 -33t-27.5 -24t-31.5 -17q-38 -16 -85 -20l-31 41q29 4 53 14q20 8 36.5 23t16.5 41q0 25 -16 32t-32 7q-6 0 -15 -1t-17 -3q-10 -2 -20 -3z" />
    <glyph glyph-name="egrave" unicode="&#xe8;" horiz-adv-x="435" 
d="M217 413q94 0 143 -52t50 -143v-35h-279q1 -23 10.5 -44t24.5 -37.5t34.5 -26.5t40.5 -10q14 0 32 3t36 10.5t35 19.5t29 30l-4 -100q-16 -11 -54 -22.5t-86 -11.5q-44 0 -83 12.5t-68.5 38t-47 64.5t-17.5 91q0 46 15.5 85t42.5 67.5t64.5 44.5t81.5 16zM219 339
q-35 0 -58.5 -24.5t-28.5 -62.5h164q-5 38 -22.5 62.5t-54.5 24.5zM132 575q0 4 16.5 5.5t36.5 2.5q23 1 53 1q0 -13 10 -31.5t25 -38t31.5 -37.5t30.5 -29h-73q-14 7 -36 20.5t-43 30.5t-36 36.5t-15 39.5z" />
    <glyph glyph-name="eacute" unicode="&#xe9;" horiz-adv-x="435" 
d="M217 413q94 0 143 -52t50 -143v-35h-279q1 -23 10.5 -44t24.5 -37.5t34.5 -26.5t40.5 -10q14 0 32 3t36 10.5t35 19.5t29 30l-4 -100q-16 -11 -54 -22.5t-86 -11.5q-44 0 -83 12.5t-68.5 38t-47 64.5t-17.5 91q0 46 15.5 85t42.5 67.5t64.5 44.5t81.5 16zM219 339
q-35 0 -58.5 -24.5t-28.5 -62.5h164q-5 38 -22.5 62.5t-54.5 24.5zM321 575q0 -20 -15 -39.5t-36 -36.5t-43 -30.5t-36 -20.5h-92q13 11 29.5 29t31.5 37.5t25 38t10 31.5q35 0 63 -1q23 -1 43 -2.5t20 -5.5z" />
    <glyph glyph-name="ecircumflex" unicode="&#xea;" horiz-adv-x="435" 
d="M217 413q94 0 143 -52t50 -143v-35h-279q1 -23 10.5 -44t24.5 -37.5t34.5 -26.5t40.5 -10q14 0 32 3t36 10.5t35 19.5t29 30l-4 -100q-16 -11 -54 -22.5t-86 -11.5q-44 0 -83 12.5t-68.5 38t-47 64.5t-17.5 91q0 46 15.5 85t42.5 67.5t64.5 44.5t81.5 16zM219 339
q-35 0 -58.5 -24.5t-28.5 -62.5h164q-5 38 -22.5 62.5t-54.5 24.5zM231 603l154 -155h-92q-14 11 -34 24.5t-44 33.5q-22 -19 -43.5 -33.5t-33.5 -24.5h-94q17 15 37 34.5t40 40t39 41.5t36 39h35z" />
    <glyph glyph-name="edieresis" unicode="&#xeb;" horiz-adv-x="435" 
d="M217 413q94 0 143 -52t50 -143v-35h-279q1 -23 10.5 -44t24.5 -37.5t34.5 -26.5t40.5 -10q14 0 32 3t36 10.5t35 19.5t29 30l-4 -100q-16 -11 -54 -22.5t-86 -11.5q-44 0 -83 12.5t-68.5 38t-47 64.5t-17.5 91q0 46 15.5 85t42.5 67.5t64.5 44.5t81.5 16zM219 339
q-35 0 -58.5 -24.5t-28.5 -62.5h164q-5 38 -22.5 62.5t-54.5 24.5zM70 520q0 29 19 47t47 18q27 0 46.5 -18t19.5 -47t-19.5 -46t-46.5 -17q-28 0 -47 17t-19 46zM228 520q0 29 19.5 47t47.5 18t47 -18t19 -47t-19 -46t-47 -17t-47.5 17t-19.5 46z" />
    <glyph glyph-name="igrave" unicode="&#xec;" horiz-adv-x="210" 
d="M162 69q0 -29 9.5 -46.5t15.5 -22.5h-158q4 4 12 23t8 52v257q0 33 -8 52.5t-12 23.5h158q-5 -2 -15 -21.5t-10 -48.5v-269zM-22 575q0 4 16.5 5.5t36.5 2.5q23 1 53 1q0 -13 10 -31.5t25 -38t31.5 -37.5t30.5 -29h-73q-14 7 -36 20.5t-43 30.5t-36 36.5t-15 39.5z" />
    <glyph glyph-name="iacute" unicode="&#xed;" horiz-adv-x="210" 
d="M162 69q0 -29 9.5 -46.5t15.5 -22.5h-158q4 4 12 23t8 52v257q0 33 -8 52.5t-12 23.5h158q-5 -2 -15 -21.5t-10 -48.5v-269zM249 575q0 -20 -15 -39.5t-36 -36.5t-43 -30.5t-36 -20.5h-92q13 11 29.5 29t31.5 37.5t25 38t10 31.5q35 0 63 -1q23 -1 43 -2.5t20 -5.5z" />
    <glyph glyph-name="icircumflex" unicode="&#xee;" horiz-adv-x="210" 
d="M162 69q0 -29 9.5 -46.5t15.5 -22.5h-158q4 4 12 23t8 52v257q0 33 -8 52.5t-12 23.5h158q-5 -2 -15 -21.5t-10 -48.5v-269zM119 603l154 -155h-92q-14 11 -34 24.5t-44 33.5q-22 -19 -43.5 -33.5t-33.5 -24.5h-94q17 15 37 34.5t40 40t39 41.5t36 39h35z" />
    <glyph glyph-name="idieresis" unicode="&#xef;" horiz-adv-x="210" 
d="M162 69q0 -29 9.5 -46.5t15.5 -22.5h-158q4 4 12 23t8 52v257q0 33 -8 52.5t-12 23.5h158q-5 -2 -15 -21.5t-10 -48.5v-269zM-42 520q0 29 19 47t47 18q27 0 46.5 -18t19.5 -47t-19.5 -46t-46.5 -17q-28 0 -47 17t-19 46zM116 520q0 29 19.5 47t47.5 18t47 -18t19 -47
t-19 -46t-47 -17t-47.5 17t-19.5 46z" />
    <glyph glyph-name="eth" unicode="&#xf0;" horiz-adv-x="437" 
d="M194 409q26 0 50.5 -4.5t41.5 -20.5q-12 36 -40.5 67t-60 55t-60 40.5t-40.5 24.5l75 31q2 1 21.5 -8.5t47.5 -29t60 -50t59.5 -72.5t46 -95t18.5 -118q0 -53 -14.5 -96t-40 -74t-60.5 -47.5t-77 -16.5q-47 0 -85 15t-65 42t-41.5 65.5t-14.5 85.5q0 45 15.5 82.5
t40.5 65t57.5 43t65.5 15.5zM128 208q0 -36 8.5 -61.5t22 -42t30 -24t32.5 -7.5q14 0 28 7t25.5 23.5t18.5 43.5t7 67q0 23 -6 45t-17.5 39t-26.5 27.5t-33 10.5q-14 0 -30 -7.5t-29 -23t-21.5 -40t-8.5 -57.5zM86 474l213 138l39 -54l-213 -137z" />
    <glyph glyph-name="ntilde" unicode="&#xf1;" horiz-adv-x="463" 
d="M278 0q4 4 12 23t8 52v189q0 32 -13.5 51.5t-39.5 19.5q-17 0 -39.5 -10t-43.5 -25v-231q0 -29 9.5 -46.5t15.5 -22.5h-158q4 4 12 23t8 52v257q0 33 -8 52.5t-12 23.5h128q2 -9 3 -21.5t1 -22.5q29 21 59 35t55 14q43 0 69.5 -12t41 -32.5t19.5 -46t5 -52.5v-201
q0 -29 9.5 -46.5t15.5 -22.5h-157v0zM284 458q-20 0 -37.5 6.5t-32.5 14t-27.5 14t-21.5 6.5q-8 0 -20 -9t-16 -32h-62q5 57 35 83.5t69 26.5q20 0 35.5 -6t29 -13t25.5 -13t25 -6q11 0 24 9t17 29h62q-5 -56 -34.5 -83t-70.5 -27z" />
    <glyph glyph-name="ograve" unicode="&#xf2;" horiz-adv-x="453" 
d="M14 200q0 51 16.5 91t45 67t66.5 41.5t80 14.5t80 -14.5t66.5 -41.5t45 -67t16.5 -91q0 -48 -16.5 -86t-45 -65t-66.5 -41t-80 -14t-80 14t-66.5 41t-45 65t-16.5 86zM129 200q0 -61 25 -98t67 -37t67.5 37t25.5 98q0 64 -25.5 102t-67.5 38t-67 -38t-25 -102zM140 575
q0 4 16.5 5.5t36.5 2.5q23 1 53 1q0 -13 10 -31.5t25 -38t31.5 -37.5t30.5 -29h-73q-14 7 -36 20.5t-43 30.5t-36 36.5t-15 39.5z" />
    <glyph glyph-name="oacute" unicode="&#xf3;" horiz-adv-x="453" 
d="M14 200q0 51 16.5 91t45 67t66.5 41.5t80 14.5t80 -14.5t66.5 -41.5t45 -67t16.5 -91q0 -48 -16.5 -86t-45 -65t-66.5 -41t-80 -14t-80 14t-66.5 41t-45 65t-16.5 86zM129 200q0 -61 25 -98t67 -37t67.5 37t25.5 98q0 64 -25.5 102t-67.5 38t-67 -38t-25 -102zM329 575
q0 -20 -15 -39.5t-36 -36.5t-43 -30.5t-36 -20.5h-92q13 11 29.5 29t31.5 37.5t25 38t10 31.5q35 0 63 -1q23 -1 43 -2.5t20 -5.5z" />
    <glyph glyph-name="ocircumflex" unicode="&#xf4;" horiz-adv-x="453" 
d="M14 200q0 51 16.5 91t45 67t66.5 41.5t80 14.5t80 -14.5t66.5 -41.5t45 -67t16.5 -91q0 -48 -16.5 -86t-45 -65t-66.5 -41t-80 -14t-80 14t-66.5 41t-45 65t-16.5 86zM129 200q0 -61 25 -98t67 -37t67.5 37t25.5 98q0 64 -25.5 102t-67.5 38t-67 -38t-25 -102zM240 603
l154 -155h-92q-14 11 -34 24.5t-44 33.5q-22 -19 -43.5 -33.5t-33.5 -24.5h-94q17 15 37 34.5t40 40t39 41.5t36 39h35z" />
    <glyph glyph-name="otilde" unicode="&#xf5;" horiz-adv-x="453" 
d="M14 200q0 51 16.5 91t45 67t66.5 41.5t80 14.5t80 -14.5t66.5 -41.5t45 -67t16.5 -91q0 -48 -16.5 -86t-45 -65t-66.5 -41t-80 -14t-80 14t-66.5 41t-45 65t-16.5 86zM129 200q0 -61 25 -98t67 -37t67.5 37t25.5 98q0 64 -25.5 102t-67.5 38t-67 -38t-25 -102zM280 458
q-20 0 -37.5 6.5t-32.5 14t-27.5 14t-21.5 6.5q-8 0 -20 -9t-16 -32h-62q5 57 35 83.5t69 26.5q20 0 35.5 -6t29 -13t25.5 -13t25 -6q11 0 24 9t17 29h62q-5 -56 -34.5 -83t-70.5 -27z" />
    <glyph glyph-name="odieresis" unicode="&#xf6;" horiz-adv-x="453" 
d="M14 200q0 51 16.5 91t45 67t66.5 41.5t80 14.5t80 -14.5t66.5 -41.5t45 -67t16.5 -91q0 -48 -16.5 -86t-45 -65t-66.5 -41t-80 -14t-80 14t-66.5 41t-45 65t-16.5 86zM129 200q0 -61 25 -98t67 -37t67.5 37t25.5 98q0 64 -25.5 102t-67.5 38t-67 -38t-25 -102zM79 520
q0 29 19 47t47 18q27 0 46.5 -18t19.5 -47t-19.5 -46t-46.5 -17q-28 0 -47 17t-19 46zM237 520q0 29 19.5 47t47.5 18t47 -18t19 -47t-19 -46t-47 -17t-47.5 17t-19.5 46z" />
    <glyph glyph-name="divide" unicode="&#xf7;" 
d="M443 310v-81h-406v81h406zM316 124q0 -28 -22 -45.5t-54 -17.5t-54.5 17.5t-22.5 45.5q0 29 22.5 46.5t54.5 17.5t54 -17.5t22 -46.5zM316 414q0 -29 -22 -46t-54 -17t-54.5 17t-22.5 46q0 28 22.5 45.5t54.5 17.5t54 -17.5t22 -45.5z" />
    <glyph glyph-name="oslash" unicode="&#xf8;" horiz-adv-x="453" 
d="M5 0l337 415h96l-336 -415h-97zM14 200q0 51 16.5 91t45 67t66.5 41.5t80 14.5t80 -14.5t66.5 -41.5t45 -67t16.5 -91q0 -48 -16.5 -86t-45 -65t-66.5 -41t-80 -14t-80 14t-66.5 41t-45 65t-16.5 86zM129 200q0 -61 25 -98t67 -37t67.5 37t25.5 98q0 64 -25.5 102
t-67.5 38t-67 -38t-25 -102z" />
    <glyph glyph-name="ugrave" unicode="&#xf9;" horiz-adv-x="467" 
d="M163 144q0 -32 14 -51.5t46 -19.5q19 0 36.5 8t37.5 25v226q0 33 -8 52.5t-11 23.5h149q-2 -1 -10 -22t-8 -54v-257q0 -33 10.5 -52t13.5 -23h-131q-2 9 -3 21.5t-1 20.5q-27 -26 -56.5 -36.5t-55.5 -10.5q-42 0 -68.5 12t-41.5 32t-20.5 45.5t-5.5 52.5v195
q0 33 -7.5 52.5t-11.5 23.5h150q-2 -1 -10 -22t-8 -54v-188zM96 575q0 4 16.5 5.5t36.5 2.5q23 1 53 1q0 -13 10 -31.5t25 -38t31.5 -37.5t30.5 -29h-73q-14 7 -36 20.5t-43 30.5t-36 36.5t-15 39.5z" />
    <glyph glyph-name="uacute" unicode="&#xfa;" horiz-adv-x="467" 
d="M163 144q0 -32 14 -51.5t46 -19.5q19 0 36.5 8t37.5 25v226q0 33 -8 52.5t-11 23.5h149q-2 -1 -10 -22t-8 -54v-257q0 -33 10.5 -52t13.5 -23h-131q-2 9 -3 21.5t-1 20.5q-27 -26 -56.5 -36.5t-55.5 -10.5q-42 0 -68.5 12t-41.5 32t-20.5 45.5t-5.5 52.5v195
q0 33 -7.5 52.5t-11.5 23.5h150q-2 -1 -10 -22t-8 -54v-188zM397 575q0 -20 -15 -39.5t-36 -36.5t-43 -30.5t-36 -20.5h-92q13 11 29.5 29t31.5 37.5t25 38t10 31.5q35 0 63 -1q23 -1 43 -2.5t20 -5.5z" />
    <glyph glyph-name="ucircumflex" unicode="&#xfb;" horiz-adv-x="467" 
d="M163 144q0 -32 14 -51.5t46 -19.5q19 0 36.5 8t37.5 25v226q0 33 -8 52.5t-11 23.5h149q-2 -1 -10 -22t-8 -54v-257q0 -33 10.5 -52t13.5 -23h-131q-2 9 -3 21.5t-1 20.5q-27 -26 -56.5 -36.5t-55.5 -10.5q-42 0 -68.5 12t-41.5 32t-20.5 45.5t-5.5 52.5v195
q0 33 -7.5 52.5t-11.5 23.5h150q-2 -1 -10 -22t-8 -54v-188zM247 603l154 -155h-92q-14 11 -34 24.5t-44 33.5q-22 -19 -43.5 -33.5t-33.5 -24.5h-94q17 15 37 34.5t40 40t39 41.5t36 39h35z" />
    <glyph glyph-name="udieresis" unicode="&#xfc;" horiz-adv-x="467" 
d="M163 144q0 -32 14 -51.5t46 -19.5q19 0 36.5 8t37.5 25v226q0 33 -8 52.5t-11 23.5h149q-2 -1 -10 -22t-8 -54v-257q0 -33 10.5 -52t13.5 -23h-131q-2 9 -3 21.5t-1 20.5q-27 -26 -56.5 -36.5t-55.5 -10.5q-42 0 -68.5 12t-41.5 32t-20.5 45.5t-5.5 52.5v195
q0 33 -7.5 52.5t-11.5 23.5h150q-2 -1 -10 -22t-8 -54v-188zM86 520q0 29 19 47t47 18q27 0 46.5 -18t19.5 -47t-19.5 -46t-46.5 -17q-28 0 -47 17t-19 46zM244 520q0 29 19.5 47t47.5 18t47 -18t19 -47t-19 -46t-47 -17t-47.5 17t-19.5 46z" />
    <glyph glyph-name="yacute" unicode="&#xfd;" horiz-adv-x="429" 
d="M13 -67q10 -12 25.5 -17.5t26.5 -5.5q27 0 54 26.5t47 83.5q-5 9 -13.5 28t-23 54.5t-36.5 90.5t-52 136q-13 35 -28.5 55t-19.5 24h165l-4 -8t-4.5 -15.5t0 -22t7.5 -27.5l71 -174l63 174q6 15 7 28t-1 22.5t-5 15.5t-3 7h134q-5 -4 -21.5 -24.5t-30.5 -54.5
q-21 -56 -38 -101t-32 -82.5l-28 -70t-25 -63.5q-22 -54 -42 -87.5t-39.5 -52t-38.5 -25.5t-39 -7q-32 0 -54 19.5t-22 48.5v25zM368 575q0 -20 -15 -39.5t-36 -36.5t-43 -30.5t-36 -20.5h-92q13 11 29.5 29t31.5 37.5t25 38t10 31.5q35 0 63 -1q23 -1 43 -2.5t20 -5.5z" />
    <glyph glyph-name="thorn" unicode="&#xfe;" horiz-adv-x="460" 
d="M431 210q0 -50 -15.5 -89.5t-42 -66.5t-61.5 -41.5t-75 -14.5q-36 0 -73 20v-104q0 -34 12.5 -53t16.5 -23h-163q6 8 13.5 25t7.5 51v609q0 33 -8 52.5t-12 23.5h152q-2 -2 -10.5 -22t-8.5 -54v-152q23 20 49 31t53 11q37 0 67 -14t52 -40.5t34 -64t12 -84.5zM319 205
q0 72 -24 100.5t-61 28.5q-20 0 -39 -11t-31 -26v-209q11 -5 27 -9.5t37 -4.5q16 0 32.5 8t29.5 24.5t21 41t8 57.5z" />
    <glyph glyph-name="ydieresis" unicode="&#xff;" horiz-adv-x="429" 
d="M13 -67q10 -12 25.5 -17.5t26.5 -5.5q27 0 54 26.5t47 83.5q-5 9 -13.5 28t-23 54.5t-36.5 90.5t-52 136q-13 35 -28.5 55t-19.5 24h165l-4 -8t-4.5 -15.5t0 -22t7.5 -27.5l71 -174l63 174q6 15 7 28t-1 22.5t-5 15.5t-3 7h134q-5 -4 -21.5 -24.5t-30.5 -54.5
q-21 -56 -38 -101t-32 -82.5l-28 -70t-25 -63.5q-22 -54 -42 -87.5t-39.5 -52t-38.5 -25.5t-39 -7q-32 0 -54 19.5t-22 48.5v25zM67 520q0 29 19 47t47 18q27 0 46.5 -18t19.5 -47t-19.5 -46t-46.5 -17q-28 0 -47 17t-19 46zM225 520q0 29 19.5 47t47.5 18t47 -18t19 -47
t-19 -46t-47 -17t-47.5 17t-19.5 46z" />
    <glyph glyph-name="dotlessi" unicode="&#x131;" horiz-adv-x="210" 
d="M162 69q0 -29 9.5 -46.5t15.5 -22.5h-158q4 4 12 23t8 52v257q0 33 -8 52.5t-12 23.5h158q-5 -2 -15 -21.5t-10 -48.5v-269z" />
    <glyph glyph-name="Lslash" unicode="&#x141;" horiz-adv-x="426" 
d="M274 402v-84l-259 -119v84zM406 0h-352h-16q1 0 6.5 7.5t12.5 20.5t12.5 30.5t5.5 37.5v393q0 21 -4 38t-9.5 29.5t-10.5 20t-6 8.5h181q-2 -1 -8 -8t-12.5 -20t-11.5 -30t-5 -38v-408h112q40 0 69 11.5t43 43.5l-1 -14z" />
    <glyph glyph-name="lslash" unicode="&#x142;" horiz-adv-x="279" 
d="M195 365l72 34v-84l-72 -33v-207q0 -33 7.5 -52t11.5 -23h-153q12 11 16.5 26.5t4.5 48.5v155l-72 -33v83l72 33v210q0 33 -8 52.5t-12 23.5h152q-2 -2 -10.5 -22t-8.5 -54v-158z" />
    <glyph glyph-name="OE" unicode="&#x152;" horiz-adv-x="745" 
d="M709 0h-356q-69 0 -129 19.5t-105 57t-70.5 91t-25.5 121.5q0 72 25.5 127.5t70.5 93t105 56.5t129 19h357l5 -114l1 -16q-12 21 -41.5 35t-69.5 14h-113v-164h115q29 0 54 10.5t32 18.5v-134q-1 1 -9 5.5t-20 9t-27 8.5t-30 4h-115v-181h113q39 0 68.5 16t42.5 36
l-1 -15zM143 292q0 -48 17 -87t45.5 -66.5t66.5 -42.5t80 -15h27v3v14.5t-0.5 38t-0.5 73t-0.5 119.5t-0.5 178h-25q-42 0 -80 -14.5t-66.5 -42t-45.5 -67.5t-17 -91z" />
    <glyph glyph-name="oe" unicode="&#x153;" horiz-adv-x="727" 
d="M518 413q94 0 143 -52t50 -143v-35h-279q1 -23 10.5 -44t24.5 -37.5t34.5 -26.5t40.5 -10q14 0 32 3t36 10.5t35 19.5t29 30l-4 -100q-16 -11 -54 -22.5t-86 -11.5q-47 0 -88 14t-71 43q-29 -28 -67 -42.5t-82 -14.5q-42 0 -80 14t-66.5 41t-45 65t-16.5 86q0 51 16.5 91
t45 67t66.5 41.5t80 14.5q45 0 83.5 -15.5t67.5 -45.5q27 29 64 44.5t81 15.5zM129 200q0 -61 25 -98t67 -37q41 0 66 35t27 94v6q0 64 -25.5 102t-67.5 38t-67 -38t-25 -102zM520 339q-35 0 -58.5 -24.5t-28.5 -62.5h164q-5 38 -22.5 62.5t-54.5 24.5z" />
    <glyph glyph-name="Scaron" unicode="&#x160;" horiz-adv-x="418" 
d="M284 145q0 19 -8 33.5t-20.5 26t-29.5 21t-35 18.5q-30 14 -60.5 32.5t-55 42.5t-40 53t-15.5 65q0 34 14.5 62.5t40.5 49.5t61 32.5t77 11.5q58 0 97 -11t63 -25v-97v-18q-6 12 -20.5 25t-33.5 23.5t-41 17.5t-42 7q-49 0 -72 -19.5t-23 -44.5q0 -15 9 -28.5t23.5 -25.5
t33.5 -23.5t39 -21.5q33 -18 62 -37t50.5 -42.5t34 -51.5t12.5 -63q0 -37 -16 -68t-44.5 -53.5t-67 -35t-84.5 -12.5q-60 0 -101.5 11t-65.5 24l-9 108v12q7 -13 25.5 -26.5t41 -25t47 -18.5t44.5 -7q26 0 46.5 7t34.5 18t21 25t7 28zM188 626q-17 18 -36 38.5t-39 41.5
t-40 40.5t-37 34.5h94q14 -10 34 -24t43 -34q22 17 43.5 33t34.5 25h92q-30 -26 -65 -62.5t-89 -92.5h-35z" />
    <glyph glyph-name="scaron" unicode="&#x161;" horiz-adv-x="358" 
d="M218 109q0 15 -18.5 26t-43.5 22q-22 10 -44.5 21t-41 26.5t-30.5 35.5t-12 48q0 30 13 53.5t36 39.5t53.5 24.5t65.5 8.5t66 -8.5t51 -17.5v-91q-20 23 -52 32.5t-59 9.5q-26 0 -44 -8.5t-18 -27.5q0 -17 18.5 -27.5t44.5 -21.5q22 -9 44.5 -20.5t41 -26.5t30 -36
t11.5 -49q0 -30 -13.5 -54t-37 -40.5t-54.5 -25t-66 -8.5t-70 9t-55 18l-6 100q12 -14 28.5 -24t34 -16.5t34.5 -9.5t32 -3q28 0 44.5 10t16.5 31zM157 468q-17 18 -36 38.5t-39 41.5t-40 40.5t-37 34.5h94q14 -10 34 -24t43 -34q22 17 43.5 33t34.5 25h92
q-30 -26 -65 -62.5t-89 -92.5h-35z" />
    <glyph glyph-name="Ydieresis" unicode="&#x178;" horiz-adv-x="542" 
d="M327 233v-137q0 -20 5 -37t12 -29.5t12.5 -20.5t7.5 -9h-185q1 0 6.5 7.5t11.5 20.5t11 30.5t5 37.5v136l-159 272v-1q-17 27 -34 50t-27 32h199q-2 -5 -7 -16t-5 -22q0 -16 10 -36l-1 1l104 -173l92 172h-1q9 21 9 35q0 11 -6 24t-8 15h167q-3 -2 -10 -9.5t-16.5 -18.5
t-20.5 -25t-20 -29v1zM149 688q0 29 19 47t47 18q27 0 46.5 -18t19.5 -47t-19.5 -46t-46.5 -17q-28 0 -47 17t-19 46zM307 688q0 29 19.5 47t47.5 18t47 -18t19 -47t-19 -46t-47 -17t-47.5 17t-19.5 46z" />
    <glyph glyph-name="Zcaron" unicode="&#x17d;" horiz-adv-x="490" 
d="M11 65q11 19 37.5 58t62.5 90.5t78.5 111t85.5 119.5h-1q13 18 21.5 29.5t21.5 30.5h-196q-19 0 -34 -1.5t-27.5 -7t-24 -15.5t-24.5 -28l2 133h458v-55q-8 -15 -27.5 -44t-47 -68t-62 -87t-73.5 -102l-105 -148h205q19 0 34 2t28 7.5t24.5 16.5t23.5 29l-2 -136h-459z
M223 626q-17 18 -36 38.5t-39 41.5t-40 40.5t-37 34.5h94q14 -10 34 -24t43 -34q22 17 43.5 33t34.5 25h92q-30 -26 -65 -62.5t-89 -92.5h-35z" />
    <glyph glyph-name="zcaron" unicode="&#x17e;" horiz-adv-x="348" 
d="M11 57l186 280h-76q-39 0 -61.5 -8.5t-48.5 -30.5l2 110h324v-46q-10 -18 -31.5 -52t-48.5 -74.5t-56.5 -84t-54.5 -80.5h83q38 0 63.5 7.5t44.5 39.5l-2 -118h-325zM152 468q-17 18 -36 38.5t-39 41.5t-40 40.5t-37 34.5h94q14 -10 34 -24t43 -34q22 17 43.5 33t34.5 25
h92q-30 -26 -65 -62.5t-89 -92.5h-35z" />
    <glyph glyph-name="florin" unicode="&#x192;" horiz-adv-x="458" 
d="M176 337h-62v71h74q2 15 4.5 31.5t5.5 31.5q6 30 21 55t36.5 42.5t48.5 27t56 9.5q27 0 41.5 -3.5t25.5 -8.5l19 -7l-1 -76l-24 -3q-10 23 -47 23q-23 0 -40 -14t-23 -48l-11 -60h85v-71h-95l-35 -215q-11 -61 -56.5 -96.5t-105.5 -35.5q-28 0 -42 3.5t-25 8.5l-18 7
l2 77l25 3q9 -24 43 -24q23 0 40.5 14t24.5 47z" />
    <glyph glyph-name="circumflex" unicode="&#x2c6;" horiz-adv-x="343" 
d="M186 603l154 -155h-92q-14 11 -34 24.5t-44 33.5q-22 -19 -43.5 -33.5t-33.5 -24.5h-94q17 15 37 34.5t40 40t39 41.5t36 39h35z" />
    <glyph glyph-name="caron" unicode="&#x2c7;" horiz-adv-x="343" 
d="M151 468q-17 18 -36 38.5t-39 41.5t-40 40.5t-37 34.5h94q14 -10 34 -24t43 -34q22 17 43.5 33t34.5 25h92q-30 -26 -65 -62.5t-89 -92.5h-35z" />
    <glyph glyph-name="breve" unicode="&#x2d8;" horiz-adv-x="229" 
d="M113 458q-20 0 -40 8.5t-35.5 24t-26.5 38t-13 50.5h72q5 -25 17.5 -36.5t28.5 -11.5q14 0 25.5 11.5t16.5 36.5h73q-3 -28 -13.5 -50.5t-26.5 -38t-35.5 -24t-39.5 -8.5h-3z" />
    <glyph glyph-name="dotaccent" unicode="&#x2d9;" horiz-adv-x="188" 
d="M30 520q0 29 19 47t47 18q27 0 46.5 -18t19.5 -47t-19.5 -46t-46.5 -17q-28 0 -47 17t-19 46z" />
    <glyph glyph-name="ring" unicode="&#x2da;" horiz-adv-x="305" 
d="M62 518q0 33 26 57t63 24t62.5 -24t25.5 -57q0 -34 -25.5 -58t-62.5 -24t-63 24t-26 58zM126 518q0 -11 7 -20t18 -9t18 9t7 20t-7 20t-18 9t-18 -9t-7 -20z" />
    <glyph glyph-name="ogonek" unicode="&#x2db;" horiz-adv-x="204" 
d="M158 9q-13 -14 -29 -33t-19 -45q-3 -29 11 -41.5t33 -12.5q20 0 38 5q10 3 18 6l-36 -58q-9 -3 -20 -7q-9 -3 -21 -5.5t-24 -2.5q-15 0 -32 4.5t-31.5 14.5t-24.5 26.5t-10 40.5q0 16 6.5 31.5t18.5 29t27.5 25.5t32.5 22h62z" />
    <glyph glyph-name="tilde" unicode="&#x2dc;" horiz-adv-x="329" 
d="M220 458q-20 0 -37.5 6.5t-32.5 14t-27.5 14t-21.5 6.5q-8 0 -20 -9t-16 -32h-62q5 57 35 83.5t69 26.5q20 0 35.5 -6t29 -13t25.5 -13t25 -6q11 0 24 9t17 29h62q-5 -56 -34.5 -83t-70.5 -27z" />
    <glyph glyph-name="hungarumlaut" unicode="&#x2dd;" horiz-adv-x="381" 
d="M253 575q0 -20 -20 -39.5t-46.5 -36.5t-53 -30.5t-40.5 -20.5h-63q13 11 30 29t32 37.5t25 38t10 31.5q35 0 63 -1q23 -1 43 -2.5t20 -5.5zM401 575q0 -20 -19.5 -39t-46 -36t-53 -30.5t-39.5 -21.5h-65q13 11 30 29t32 37.5t25.5 38t10.5 31.5q35 0 62 -1q23 -1 43 -2.5
t20 -5.5z" />
    <glyph glyph-name="endash" unicode="&#x2013;" 
d="M474 307v-81h-484v81h484z" />
    <glyph glyph-name="emdash" unicode="&#x2014;" horiz-adv-x="960" 
d="M955 307v-81h-962v81h962z" />
    <glyph glyph-name="quoteleft" unicode="&#x2018;" horiz-adv-x="208" 
d="M32 443q0 24 8 48t25 45.5t43 38t62 24.5l10 -14q-18 -14 -33.5 -35.5t-15.5 -36.5q0 -6 2.5 -11.5t7.5 -7.5q20 -8 31.5 -27.5t11.5 -38.5q0 -14 -6 -27.5t-16 -24t-24 -17t-30 -6.5q-32 0 -54 26t-22 64z" />
    <glyph glyph-name="quoteright" unicode="&#x2019;" horiz-adv-x="208" 
d="M182 526q0 -24 -8 -48t-25 -45.5t-43 -38t-62 -24.5l-10 14q18 14 33.5 35.5t15.5 36.5q0 6 -2.5 11.5t-7.5 7.5q-20 8 -31.5 27.5t-11.5 38.5q0 14 6 27.5t16 24t24 17t30 6.5q32 0 54 -26t22 -64z" />
    <glyph glyph-name="quotesinglbase" unicode="&#x201a;" horiz-adv-x="211" 
d="M182 51q0 -24 -8 -48t-25 -45.5t-43 -38t-62 -24.5l-10 14q18 14 33.5 35.5t15.5 36.5q0 6 -2.5 11.5t-7.5 7.5q-20 8 -31.5 27.5t-11.5 38.5q0 14 6 27.5t16 24t24 17t30 6.5q32 0 54 -26t22 -64z" />
    <glyph glyph-name="quotedblleft" unicode="&#x201c;" horiz-adv-x="355" 
d="M12 443q0 24 8 48t25 45.5t43 38t62 24.5l10 -14q-18 -14 -33.5 -35.5t-15.5 -36.5q0 -6 2.5 -11.5t7.5 -7.5q20 -8 31.5 -27.5t11.5 -38.5q0 -14 -6 -27.5t-16 -24t-24 -17t-30 -6.5q-32 0 -54 26t-22 64zM185 443q0 24 8 48t25 45.5t43 38t62 24.5l10 -14
q-18 -14 -33.5 -35.5t-15.5 -36.5q0 -6 2.5 -11.5t7.5 -7.5q20 -8 31.5 -27.5t11.5 -38.5q0 -14 -6 -27.5t-16 -24t-24 -17t-30 -6.5q-32 0 -54 26t-22 64z" />
    <glyph glyph-name="quotedblright" unicode="&#x201d;" horiz-adv-x="362" 
d="M172 526q0 -24 -8 -48t-25 -45.5t-43 -38t-62 -24.5l-10 14q18 14 33.5 35.5t15.5 36.5q0 6 -2.5 11.5t-7.5 7.5q-20 8 -31.5 27.5t-11.5 38.5q0 14 6 27.5t16 24t24 17t30 6.5q32 0 54 -26t22 -64zM345 526q0 -24 -8 -48t-25 -45.5t-43 -38t-62 -24.5l-10 14
q18 14 33.5 35.5t15.5 36.5q0 6 -2.5 11.5t-7.5 7.5q-20 8 -31.5 27.5t-11.5 38.5q0 14 6 27.5t16 24t24 17t30 6.5q32 0 54 -26t22 -64z" />
    <glyph glyph-name="quotedblbase" unicode="&#x201e;" horiz-adv-x="362" 
d="M172 51q0 -24 -8 -48t-25 -45.5t-43 -38t-62 -24.5l-10 14q18 14 33.5 35.5t15.5 36.5q0 6 -2.5 11.5t-7.5 7.5q-20 8 -31.5 27.5t-11.5 38.5q0 14 6 27.5t16 24t24 17t30 6.5q32 0 54 -26t22 -64zM345 51q0 -24 -8 -48t-25 -45.5t-43 -38t-62 -24.5l-10 14
q18 14 33.5 35.5t15.5 36.5q0 6 -2.5 11.5t-7.5 7.5q-20 8 -31.5 27.5t-11.5 38.5q0 14 6 27.5t16 24t24 17t30 6.5q32 0 54 -26t22 -64z" />
    <glyph glyph-name="dagger" unicode="&#x2020;" 
d="M286 603v-161l117 10v-83l-117 10v-430h-93v430l-116 -10v83l116 -10v161h93z" />
    <glyph glyph-name="daggerdbl" unicode="&#x2021;" 
d="M286 603v-161l117 10v-83l-117 10v-208l117 10v-82l-117 10v-160h-93v160l-116 -10v82l116 -10v208l-116 -10v83l116 -10v161h93z" />
    <glyph glyph-name="bullet" unicode="&#x2022;" horiz-adv-x="328" 
d="M29 248q0 28 10.5 50.5t28.5 39t42.5 25.5t51.5 9q28 0 52.5 -9t42.5 -25.5t28.5 -39t10.5 -50.5q0 -27 -10.5 -49t-28.5 -37.5t-42.5 -24t-52.5 -8.5q-27 0 -51.5 8.5t-42.5 24t-28.5 37.5t-10.5 49z" />
    <glyph glyph-name="ellipsis" unicode="&#x2026;" horiz-adv-x="629" 
d="M32 56q0 29 22 47t54 18t54 -18t22 -47q0 -28 -22 -45t-54 -17t-54 17t-22 45zM236 56q0 29 22 47t54 18t54 -18t22 -47q0 -28 -22 -45t-54 -17t-54 17t-22 45zM440 56q0 29 22 47t54 18t54.5 -18t22.5 -47q0 -28 -22.5 -45t-54.5 -17t-54 17t-22 45z" />
    <glyph glyph-name="perthousand" unicode="&#x2030;" horiz-adv-x="758" 
d="M732 145q0 -35 -10.5 -63t-27.5 -47.5t-40.5 -30t-48.5 -10.5q-49 0 -80 30q-16 -13 -37 -21.5t-42 -8.5q-25 0 -48 10.5t-40 30t-27.5 47.5t-10.5 63q0 37 10.5 66.5t27.5 49.5t40 30.5t48 10.5q46 0 79 -31q34 31 80 31q25 0 48.5 -10.5t40.5 -30.5t27.5 -49.5
t10.5 -66.5zM10 434q0 37 10 66.5t27.5 49.5t40.5 30.5t49 10.5q25 0 48.5 -10.5t40.5 -30.5t27.5 -49.5t10.5 -66.5q0 -35 -10.5 -63t-27.5 -47.5t-40.5 -30t-48.5 -10.5q-26 0 -49 10.5t-40.5 30t-27.5 47.5t-10 63zM130 0h-96q6 8 14 20t26 37.5t49 68.5t81 114l244 345
h99zM413 145q0 -41 9 -65.5t24 -24.5q14 0 22.5 22.5t10.5 60.5v13q-2 42 -10.5 66t-22.5 24q-15 0 -24 -25.5t-9 -70.5zM104 434q0 -41 9 -65.5t24 -24.5t23.5 24.5t8.5 65.5q0 45 -8.5 70.5t-23.5 25.5t-24 -25.5t-9 -70.5zM638 145q0 45 -8.5 70.5t-24.5 25.5
q-14 0 -22.5 -24t-9.5 -66v-6q0 -41 9 -65.5t23 -24.5q16 0 24.5 24.5t8.5 65.5z" />
    <glyph glyph-name="guilsinglleft" unicode="&#x2039;" horiz-adv-x="299" 
d="M279 454v-87l-137 -101l137 -101v-87l-256 163v51z" />
    <glyph glyph-name="guilsinglright" unicode="&#x203a;" horiz-adv-x="299" 
d="M279 292v-51l-256 -163v88l136 100l-136 100v88z" />
    <glyph glyph-name="fraction" unicode="&#x2044;" horiz-adv-x="167" 
d="M-73 0h-96q2 3 6.5 9.5t13.5 19t23 32t35 49.5l337 475h98z" />
    <glyph glyph-name="Euro" unicode="&#x20ac;" horiz-adv-x="554" 
d="M87 401q15 45 42 81t62 60.5t76.5 37.5t86.5 13q61 0 104 -11t69 -25v-120q-27 38 -68.5 58t-95.5 20q-52 0 -89 -30t-55 -84h237l-26 -80h-227q-1 -8 -1 -15.5v-16.5q0 -8 -0.5 -12t0.5 -11h224l-25 -81h-182q21 -51 59.5 -83t86.5 -32q20 0 43.5 4t46.5 13.5t43.5 25
t34.5 37.5v-115q-32 -20 -80 -30.5t-102 -10.5q-47 0 -89 13t-76.5 37.5t-60 60t-39.5 80.5h-68v81h53v23v16t1 16h-54v80h69z" />
    <glyph glyph-name="trademark" unicode="&#x2122;" horiz-adv-x="401" 
d="M8 589h147l1 -37q-5 7 -11.5 10.5t-21.5 3.5h-27v-127q0 -16 4.5 -23t5.5 -8h-50q1 0 6 7.5t5 23.5v127h-27q-15 0 -21.5 -3.5t-11.5 -10.5zM205 589q-1 -1 18.5 -30t57.5 -98q36 68 52 97.5t15 30.5h39q-1 -1 -6 -8.5t-5 -22.5v-119q0 -16 5 -23.5t6 -7.5h-50q1 1 5.5 8
t4.5 23v87q-23 -46 -40 -76.5t-22 -41.5h-13q-2 5 -11.5 21t-21.5 35t-22.5 36.5t-13.5 25.5v-87q0 -16 4.5 -23t5.5 -8h-44q1 0 5.5 7.5t4.5 23.5v119q0 15 -4.5 22.5t-5.5 8.5h36z" />
    <glyph glyph-name="minus" unicode="&#x2212;" 
d="M443 307v-81h-406v81h406z" />
    </font>
</defs>
</svg>
